<?xml version="1.0" encoding="UTF-8"?>
<svg version="1.1" xmlns="http://www.w3.org/2000/svg" width="666" height="375">
<path d="M0 0 C5.94 0 11.88 0 18 0 C18 1.32 18 2.64 18 4 C16.02 4.99 16.02 4.99 14 6 C14.495 9.96 14.495 9.96 15 14 C15.804375 14.144375 16.60875 14.28875 17.4375 14.4375 C20 15 20 15 21 16 C21.07205511 17.68608966 21.08386068 19.37500659 21.0625 21.0625 C21.05347656 21.98160156 21.04445313 22.90070313 21.03515625 23.84765625 C21.02355469 24.55792969 21.01195312 25.26820313 21 26 C19.02 26 17.04 26 15 26 C15.495 26.99 15.495 26.99 16 28 C16.31120284 30.55877893 16.50964666 33.11851612 16.71875 35.6875 C16.87136047 38.02268455 16.87136047 38.02268455 18 40 C21.91756057 39.19868079 23.60224585 38.58026274 25.8984375 35.23046875 C28.85303925 29.71043904 30.81568181 23.77094602 32.875 17.875 C33.30296875 16.70839844 33.7309375 15.54179687 34.171875 14.33984375 C34.56632812 13.21449219 34.96078125 12.08914062 35.3671875 10.9296875 C35.72925293 9.91116699 36.09131836 8.89264648 36.46435547 7.84326172 C37.34525238 4.56571125 37.34525238 4.56571125 35 0 C41.27 0 47.54 0 54 0 C54.495 1.98 54.495 1.98 55 4 C53.68 4.66 52.36 5.32 51 6 C51.495 13.425 51.495 13.425 52 21 C56.818911 14.71427656 56.818911 14.71427656 61 8 C61.4125 7.319375 61.825 6.63875 62.25 5.9375 C63.33205132 3.69508128 63.33205132 3.69508128 62 0 C67.94 0 73.88 0 80 0 C80.495 2.475 80.495 2.475 81 5 C80.08541016 5.51240234 80.08541016 5.51240234 79.15234375 6.03515625 C76.21615755 8.71555853 75.55938369 11.71849047 74.5625 15.4375 C72.77162906 21.7012877 70.61036348 27.5433324 67.8203125 33.44921875 C66.84809977 36.47233738 67.15148223 37.97298436 68 41 C68.495 43.475 68.495 43.475 69 46 C62.73 46 56.46 46 50 46 C49.67 44.35 49.34 42.7 49 41 C49.763125 40.525625 50.52625 40.05125 51.3125 39.5625 C54.88608115 36.15513193 55.76849064 32.68574293 57 28 C56.20335937 29.19496094 56.20335937 29.19496094 55.390625 30.4140625 C53.26041667 33.609375 51.13020833 36.8046875 49 40 C48.37609375 41.12148437 47.7521875 42.24296875 47.109375 43.3984375 C46.06523437 44.68621094 46.06523437 44.68621094 45 46 C43.02 46 41.04 46 39 46 C38.67 40.72 38.34 35.44 38 30 C35.235051 35.8153852 35.235051 35.8153852 37 46 C24.79 46 12.58 46 0 46 C-0.495 43.525 -0.495 43.525 -1 41 C0.375 39.5 0.375 39.5 2 38 C2.72197162 35.39388923 2.72197162 35.39388923 3 33 C2.236875 33.66 1.47375 34.32 0.6875 35 C-2 37 -2 37 -5 37 C-5.99 35.02 -6.98 33.04 -8 31 C-10.07525903 33.49031084 -11.00649557 35.29089974 -10.9765625 38.55859375 C-10.71540353 41.04666228 -10.36303756 43.5247439 -10 46 C-16.27 46 -22.54 46 -29 46 C-29.33 44.35 -29.66 42.7 -30 41 C-29.34773438 40.50371094 -28.69546875 40.00742188 -28.0234375 39.49609375 C-18.24750873 32.3809606 -18.24750873 32.3809606 -13 22 C-13.99 21.67 -14.98 21.34 -16 21 C-14.51584886 18.4848235 -12.99775879 16.13822621 -11 14 C-9.01178687 13.60235737 -7.01055661 13.26224651 -5 13 C-3.22851628 10.52066803 -3.22851628 10.52066803 -2 8 C-1.34 8 -0.68 8 0 8 C0 5.36 0 2.72 0 0 Z M1 16 C-0.10636395 18.39068734 -0.10636395 18.39068734 -1 21 C-0.67 21.66 -0.34 22.32 0 23 C0.99 22.67 1.98 22.34 3 22 C3 20.35 3 18.7 3 17 C2.34 16.67 1.68 16.34 1 16 Z " fill="#151515" transform="translate(372,117)"/>
<path d="M0 0 C0.703125 1.77734375 0.703125 1.77734375 1 4 C-0.328125 5.81640625 -0.328125 5.81640625 -2.25 7.5625 C-2.87390625 8.14128906 -3.4978125 8.72007813 -4.140625 9.31640625 C-4.75421875 9.87199219 -5.3678125 10.42757812 -6 11 C-7.00564639 11.99432154 -8.00768606 12.99237257 -9 14 C-12 13 -12 13 -13.3125 10.5 C-14.818512 7.68724934 -14.818512 7.68724934 -18.125 7.125 C-19.07375 7.08375 -20.0225 7.0425 -21 7 C-22.29633621 8.06645115 -22.29633621 8.06645115 -22.0625 10.5625 C-22.041875 11.366875 -22.02125 12.17125 -22 13 C-21.27554688 13.31453125 -20.55109375 13.6290625 -19.8046875 13.953125 C-14.53967276 16.28377153 -9.65512121 18.60301966 -5 22 C-4.236875 21.38125 -3.47375 20.7625 -2.6875 20.125 C0 18 0 18 3 16 C4.05411355 13.7312739 4.05411355 13.7312739 4.75 11.125 C5.01296875 10.26132813 5.2759375 9.39765625 5.546875 8.5078125 C6.02292305 5.87313277 5.85801541 4.50080102 5 2 C4.505 0.515 4.505 0.515 4 -1 C9.94 -1 15.88 -1 22 -1 C22.495 1.475 22.495 1.475 23 4 C22.37609375 4.21398437 21.7521875 4.42796875 21.109375 4.6484375 C18.16414403 6.53556697 18.02912389 8.27476726 17.25 11.625 C16.88648438 13.12933594 16.88648438 13.12933594 16.515625 14.6640625 C16.34546875 15.43492187 16.1753125 16.20578125 16 17 C18.31 16.67 20.62 16.34 23 16 C23.72873466 14.11191474 24.43226247 12.21408746 25.125 10.3125 C25.51945312 9.25675781 25.91390625 8.20101562 26.3203125 7.11328125 C27.3886842 3.61624233 27.3886842 3.61624233 25 -1 C30.94 -1 36.88 -1 43 -1 C43.495 0.98 43.495 0.98 44 3 C42.84371094 3.75216797 42.84371094 3.75216797 41.6640625 4.51953125 C38.3995794 7.55904265 37.48539074 10.50911564 36.375 14.6875 C35.96337139 16.13573883 35.55061966 17.58365894 35.13671875 19.03125 C34.94384277 19.7221875 34.7509668 20.413125 34.55224609 21.125 C33.89175611 23.3675124 33.05044783 25.51595054 32.1875 27.6875 C30.25326458 33.27287645 30.75678057 39.17174181 31 45 C27.84914026 46.57542987 24.55473781 45.81420726 21.125 45.5625 C11.07728417 44.9034474 1.06496455 44.90544397 -9 45 C-9.1484375 42.609375 -9.1484375 42.609375 -9 40 C-8.21625 39.4225 -7.4325 38.845 -6.625 38.25 C-2.91024903 35.06592774 -2.67249922 31.69745723 -2 27 C-2.66 27 -3.32 27 -4 27 C-4.32871094 27.72445312 -4.65742188 28.44890625 -4.99609375 29.1953125 C-9.14759712 37.63332749 -13.55825043 41.50586478 -22 45.375 C-30.69588536 47.18664278 -39.34206072 45.37935875 -48 44 C-48.35240267 38.56074136 -48.35240267 38.56074136 -46.7578125 36.0234375 C-46.21898437 35.47945312 -45.68015625 34.93546875 -45.125 34.375 C-42.85621331 32.04045138 -41.34003981 29.97931181 -40 27 C-38.68 27 -37.36 27 -36 27 C-36 27.66 -36 28.32 -36 29 C-35.01 29.33 -34.02 29.66 -33 30 C-30 35.22222222 -30 35.22222222 -30 38 C-23.10740765 36.65226477 -23.10740765 36.65226477 -18 32 C-21.9392962 28.0607038 -25.36926469 27.31023624 -30.6953125 26.58984375 C-33.38855842 25.90055539 -34.36384521 25.22926089 -36 23 C-37.64645633 17.71675088 -37.22745339 12.80060113 -35.00390625 7.78515625 C-32.17733565 2.75891982 -28.42795128 0.26158216 -23.1015625 -1.50390625 C-15.82473975 -3.22166924 -7.15484994 -1.9176287 0 0 Z M11 26 C9.56694391 30.47830028 8.55713233 34.23917255 9 39 C9.66 39.66 10.32 40.32 11 41 C14.57601945 39.25172382 16.47135958 38.23543073 18.06640625 34.5078125 C18.7967504 32.01688028 19.44824545 29.53613496 20 27 C17.04335481 25.5216774 14.25770263 25.93967217 11 26 Z " fill="#161616" transform="translate(185,118)"/>
<path d="M0 0 C1.10085938 -0.01417969 2.20171875 -0.02835937 3.3359375 -0.04296875 C7.40499752 0.24215541 10.96970277 1.06426259 14.375 3.375 C16.82049321 6.92096515 17.625 10.93621793 17.625 15.1875 C18.28886719 14.42824219 18.95273437 13.66898438 19.63671875 12.88671875 C20.52830564 11.88251036 21.42025188 10.87862093 22.3125 9.875 C23.61767578 8.39580078 23.61767578 8.39580078 24.94921875 6.88671875 C29.3664159 2.43083082 33.248226 0.34499015 39.47265625 0.0546875 C59.54095615 0.10345615 59.54095615 0.10345615 62.625 3.1875 C62.625 4.1775 62.625 5.1675 62.625 6.1875 C60.96711215 7.53173339 59.29923683 8.86368483 57.625 10.1875 C57.13 11.074375 56.635 11.96125 56.125 12.875 C54.625 15.1875 54.625 15.1875 52 16.0625 C51.21625 16.10375 50.4325 16.145 49.625 16.1875 C48.625 15.1875 48.625 15.1875 48.5625 12.125 C48.583125 11.155625 48.60375 10.18625 48.625 9.1875 C46.83406809 9.10663853 45.04210372 9.04837298 43.25 9 C42.25226563 8.96519531 41.25453125 8.93039063 40.2265625 8.89453125 C38.93878906 9.03955078 38.93878906 9.03955078 37.625 9.1875 C36.965 10.1775 36.305 11.1675 35.625 12.1875 C36.615 12.6825 36.615 12.6825 37.625 13.1875 C38.12 14.6725 38.12 14.6725 38.625 16.1875 C44.565 16.5175 50.505 16.8475 56.625 17.1875 C57.615 19.1675 57.615 19.1675 58.625 21.1875 C57.75875 22.0846875 57.75875 22.0846875 56.875 23 C51.51956756 30.58686263 50.20564548 37.17042421 51.625 46.1875 C47.37574388 46.41344826 43.12567556 46.61521126 38.875 46.8125 C37.6684375 46.87695312 36.461875 46.94140625 35.21875 47.0078125 C34.05859375 47.059375 32.8984375 47.1109375 31.703125 47.1640625 C30.63481445 47.21643066 29.56650391 47.26879883 28.46582031 47.32275391 C23.84499128 47.10275225 22.13586033 45.73485036 19 42.375 C14.86502932 36.82543408 14.4215575 33.07998393 14.65234375 26.296875 C14.87055797 24.20043065 14.87055797 24.20043065 13.625 23.1875 C13.625 24.8375 13.625 26.4875 13.625 28.1875 C12.965 28.1875 12.305 28.1875 11.625 28.1875 C11.439375 29.033125 11.25375 29.87875 11.0625 30.75 C8.19120682 37.61613587 2.46352102 41.89841267 -4.046875 45.2421875 C-9.32693141 47.38610302 -13.61471777 47.62757056 -19.125 46.25 C-23.43798139 43.51291565 -25.650157 41.01403437 -27.375 36.1875 C-29.0279017 26.59566133 -26.60462454 19.22447643 -21.375 11.1875 C-18.875 8.25 -18.875 8.25 -16.375 6.1875 C-15.87871094 5.73761719 -15.38242187 5.28773437 -14.87109375 4.82421875 C-9.90735254 0.40785752 -6.51113548 0.03794368 0 0 Z M-6.375 9.1875 C-6.375 9.8475 -6.375 10.5075 -6.375 11.1875 C-7.035 11.1875 -7.695 11.1875 -8.375 11.1875 C-12.99518203 19.79059757 -16.37595073 27.36465097 -14.375 37.1875 C-12.17985127 38.1468157 -12.17985127 38.1468157 -9.375 38.1875 C-2.14159756 34.03214115 1.07053163 25.8509051 3.625 18.1875 C3.69240865 16.62631572 3.71014456 15.0624748 3.6875 13.5 C3.67847656 12.69175781 3.66945313 11.88351563 3.66015625 11.05078125 C3.64855469 10.43589844 3.63695312 9.82101563 3.625 9.1875 C0.39174981 7.57087491 -3.14174981 7.57087491 -6.375 9.1875 Z M15.625 18.1875 C16.625 21.1875 16.625 21.1875 16.625 21.1875 Z M28.625 23.1875 C27.33626678 30.905005 27.33626678 30.905005 29.625 38.1875 C32.265 38.1875 34.905 38.1875 37.625 38.1875 C38.29805018 36.58600114 38.96322227 34.98118971 39.625 33.375 C39.99625 32.48167969 40.3675 31.58835938 40.75 30.66796875 C41.79133237 28.1543567 41.79133237 28.1543567 41.625 25.1875 C40.59439453 25.09662109 40.59439453 25.09662109 39.54296875 25.00390625 C38.64191406 24.92011719 37.74085938 24.83632812 36.8125 24.75 C35.91917969 24.66878906 35.02585937 24.58757812 34.10546875 24.50390625 C31.625 24.1875 31.625 24.1875 28.625 23.1875 Z " fill="#151515" transform="translate(570.375,116.8125)"/>
<path d="M0 0 C2.50304378 3.75456567 2.45280074 5.54745934 2 10 C0.10441227 13.39898489 -1.96687085 16.51834888 -5 19 C-5.66 19 -6.32 19 -7 19 C-7 19.66 -7 20.32 -7 21 C-6.01 21 -5.02 21 -4 21 C-3.20897087 25.28871216 -2.68636298 28.87986777 -3.875 33.125 C-7.44334872 37.95276592 -12.26126006 42.08708669 -18 44 C-22.32492918 44.35699579 -26.66369758 44.46680871 -31 44.625 C-32.20140625 44.6765625 -33.4028125 44.728125 -34.640625 44.78125 C-35.79046875 44.82507813 -36.9403125 44.86890625 -38.125 44.9140625 C-39.70667969 44.9752124 -39.70667969 44.9752124 -41.3203125 45.03759766 C-44 45 -44 45 -47 44 C-47.33 42.35 -47.66 40.7 -48 39 C-46.88625 38.319375 -46.88625 38.319375 -45.75 37.625 C-41.94895314 33.996728 -40.67441099 29.90162771 -39 25 C-39.99 24.67 -40.98 24.34 -42 24 C-42.20086443 20.28400809 -42.1519437 19.22791555 -40 16 C-39.33484375 15.86722656 -38.6696875 15.73445313 -37.984375 15.59765625 C-37.32953125 15.40042969 -36.6746875 15.20320313 -36 15 C-34.8624787 12.91965706 -34.8624787 12.91965706 -34.25 10.4375 C-34.00765625 9.61121094 -33.7653125 8.78492187 -33.515625 7.93359375 C-33.34546875 7.29550781 -33.1753125 6.65742187 -33 6 C-35.475 5.505 -35.475 5.505 -38 5 C-40.92152903 9.33043208 -42.33935801 13.75421174 -43.875 18.6875 C-50.33924306 38.52287629 -50.33924306 38.52287629 -60 44 C-65.20855011 45.73618337 -70.7613048 45.80974082 -75.9375 43.9375 C-78.77530195 41.27168604 -80.34085944 38.8091386 -81 35 C-80.45715746 26.35423949 -77.49165396 17.69536893 -74.3125 9.6875 C-72.68094972 5.10362065 -72.47765354 2.56703939 -74 -2 C-68.39 -2 -62.78 -2 -57 -2 C-56.67 -0.35 -56.34 1.3 -56 3 C-57.31110333 4.35519873 -58.6492549 5.68430884 -60 7 C-61.29788183 9.64195946 -62.20429425 12.39503649 -63.125 15.1875 C-63.51292725 16.32662842 -63.51292725 16.32662842 -63.90869141 17.48876953 C-66.96447377 26.55065916 -66.96447377 26.55065916 -68 36 C-63.27111233 35.83405686 -63.27111233 35.83405686 -59.45703125 33.42578125 C-57.54659991 30.24514354 -56.25952457 26.91179737 -55 23.4375 C-54.61134766 22.37329834 -54.61134766 22.37329834 -54.21484375 21.28759766 C-49.62636095 9.82864608 -49.62636095 9.82864608 -51 -2 C-46.05 -2 -41.1 -2 -36 -2 C-35.34 -0.68 -34.68 0.64 -34 2 C-33.21625 1.54625 -32.4325 1.0925 -31.625 0.625 C-21.35486924 -3.97885172 -10.46863975 -4.21870557 0 0 Z M-18 5 C-21.35693737 7.23795825 -21.91970563 8.2189697 -23 12 C-22.58663974 14.12339767 -22.58663974 14.12339767 -22 16 C-20.51965236 15.52449439 -19.04074979 15.04448784 -17.5625 14.5625 C-16.73878906 14.29566406 -15.91507812 14.02882812 -15.06640625 13.75390625 C-13.03780412 13.17844506 -13.03780412 13.17844506 -12 12 C-11.95936168 10.33382885 -11.957279 8.66611905 -12 7 C-14.8371515 5.80404463 -14.8371515 5.80404463 -18 5 Z M-26 24 C-26.67354499 25.43429001 -27.33859701 26.87257057 -28 28.3125 C-28.37125 29.11300781 -28.7425 29.91351563 -29.125 30.73828125 C-30.18040667 33.06213959 -30.18040667 33.06213959 -30 36 C-26.1863421 36.36320551 -24.1673455 36.08209402 -20.6875 34.375 C-17.7350613 32.20574058 -17.7350613 32.20574058 -17.125 28.75 C-17.08375 27.8425 -17.0425 26.935 -17 26 C-21.455 25.01 -21.455 25.01 -26 24 Z " fill="#141414" transform="translate(305,119)"/>
<path d="M0 0 C0.75539063 -0.02449219 1.51078125 -0.04898438 2.2890625 -0.07421875 C7.39296871 -0.10098749 9.85531303 0.66733713 13.625 4.375 C14.553125 5.035 15.48125 5.695 16.4375 6.375 C19.85928264 11.06773047 19.45406087 15.76172551 18.625 21.375 C16.65404302 25.38730528 14.47779636 28.08740216 10.625 30.375 C9.29821832 30.73352373 7.96524676 31.0706523 6.625 31.375 C7.20507812 31.84808594 7.78515625 32.32117188 8.3828125 32.80859375 C10.87901283 34.92171383 13.26307435 37.11292812 15.625 39.375 C16.58212891 40.28185547 16.58212891 40.28185547 17.55859375 41.20703125 C23.42960344 48.11989877 22.55509918 57.57015618 21.96069336 66.16186523 C20.99574359 72.52351589 16.74547309 78.06261755 11.6640625 81.828125 C4.33022714 86.57194415 -3.03038606 87.73150837 -11.6953125 85.87890625 C-16.31817257 84.32330505 -19.12887005 82.0848628 -22.375 78.375 C-22.931875 77.900625 -23.48875 77.42625 -24.0625 76.9375 C-27.81355349 72.47196013 -27.80159249 66.76373527 -27.6953125 61.19921875 C-27.08535709 55.82119726 -25.21806058 51.16221026 -21.3125 47.375 C-16.20263105 44.73764828 -10.99549043 44.79440415 -5.375 45.375 C-2 47.0625 -2 47.0625 0.625 49.375 C1.553125 50.1175 2.48125 50.86 3.4375 51.625 C6.25771153 55.17040878 6.93248969 57.88223397 6.625 62.375 C5.375 66.125 5.375 66.125 3.625 69.375 C3.2125 70.15875 2.8 70.9425 2.375 71.75 C-0.35333547 74.28345437 -2.72573551 74.25129612 -6.375 74.375 C-9.8125 73.4375 -9.8125 73.4375 -12.375 72.375 C-13.32524979 68.67958414 -13.32524979 66.07041586 -12.375 62.375 C-11.240625 62.395625 -10.10625 62.41625 -8.9375 62.4375 C-5.55924326 62.79077477 -5.55924326 62.79077477 -4.375 61.375 C-4.30351801 60.02256083 -4.29100546 58.66665633 -4.3125 57.3125 C-4.333125 56.013125 -4.35375 54.71375 -4.375 53.375 C-9.66343118 52.85557397 -9.66343118 52.85557397 -14.3125 54.75 C-17.65398805 59.86051114 -16.80656471 66.00139409 -15.75 71.8125 C-13.81903832 75.4111104 -12.26555127 76.17246597 -8.375 77.375 C-2.91893702 77.51908617 1.10879534 76.52265779 5.625 73.375 C6.285 73.375 6.945 73.375 7.625 73.375 C9.86988688 66.1121307 10.13321868 60.29636856 7.375 53.125 C4.7511745 49.00184564 1.54117019 46.1119195 -2.25 43.0625 C-8.16593144 38.21387578 -14.85030261 31.33026652 -17.125 23.9375 C-17.95300643 15.45043404 -16.22115875 9.44231485 -11.375 2.375 C-7.56534402 -0.16477065 -4.41664491 0.00746055 0 0 Z M-4.375 7.375 C-6.83828846 11.0699327 -7.06966527 14.08584582 -6.375 18.375 C-5.25842737 20.68096521 -3.99097667 22.35502917 -2.375 24.375 C-0.89469728 23.56457164 0.58421142 22.75159652 2.0625 21.9375 C3.29806641 21.25880859 3.29806641 21.25880859 4.55859375 20.56640625 C6.54808798 19.53837603 6.54808798 19.53837603 7.625 18.375 C8.2498086 13.00821419 8.2498086 13.00821419 6.125 8.375 C2.38058038 6.87723215 -0.34432648 6.98493482 -4.375 7.375 Z M15.625 14.375 C16.625 17.375 16.625 17.375 16.625 17.375 Z M19.625 54.375 C20.625 56.375 20.625 56.375 20.625 56.375 Z " fill="#1C1B1B" transform="translate(44.375,71.625)"/>
<path d="M0 0 C0.64066406 0.22042969 1.28132813 0.44085938 1.94140625 0.66796875 C6.41875964 2.57301976 7.95235644 5.30572654 9.9375 9.6875 C13.40800996 19.23428489 12.48258539 25.63310372 8.62890625 35.03125 C6.25008614 39.36674947 3.30571689 41.69734027 -1 44 C-1.62261719 44.37511719 -2.24523437 44.75023437 -2.88671875 45.13671875 C-5.61175461 46.24990345 -7.81763876 46.19481812 -10.75 46.125 C-12.22726563 46.09792969 -12.22726563 46.09792969 -13.734375 46.0703125 C-14.48203125 46.04710937 -15.2296875 46.02390625 -16 46 C-15.835 46.886875 -15.67 47.77375 -15.5 48.6875 C-14.01868717 59.53593809 -13.60383931 73.56152843 -19.984375 82.90625 C-20.64953125 83.5971875 -21.3146875 84.288125 -22 85 C-22.66 85 -23.32 85 -24 85 C-24 85.66 -24 86.32 -24 87 C-29.07095121 90.12058536 -33.20277955 90.73137475 -39 90 C-43.21245644 88.65967295 -44.74779896 86.13975973 -46.875 82.4375 C-49.79248517 76.11474823 -49.33631194 71.2090253 -47.26953125 64.69921875 C-45.62851641 60.77941474 -44.37233591 59.2318318 -40.6875 56.9375 C-36.59883685 55.89800937 -34.06227247 55.90631126 -30 57 C-28.296875 58.5546875 -28.296875 58.5546875 -27 60 C-26.93519181 55.66505231 -26.94669959 51.33510014 -27 47 C-27.01546875 45.72125 -27.0309375 44.4425 -27.046875 43.125 C-27.09328125 41.8875 -27.1396875 40.65 -27.1875 39.375 C-27.23970703 37.65410156 -27.23970703 37.65410156 -27.29296875 35.8984375 C-27.71609161 32.80353274 -27.71609161 32.80353274 -30.44140625 31.234375 C-31.28574219 30.82703125 -32.13007812 30.4196875 -33 30 C-36.42826137 25.83711119 -37.12872811 21.2692708 -37 16 C-35.89642436 9.59283269 -33.10149059 4.1101529 -28 0 C-18.96262492 -4.86494712 -9.15230378 -3.86885095 0 0 Z M-24 7 C-26.75869104 10.30545863 -27.98783315 13.67728909 -28.02734375 17.97265625 C-27.77993063 20.67329244 -27.45212766 23.32654951 -27 26 C-24.78308824 24.09681373 -24.78308824 24.09681373 -24.125 21.125 C-22.91053653 17.75149037 -21.74912161 16.24928132 -19 14 C-18.01 13.67 -17.02 13.34 -16 13 C-16 13.66 -16 14.32 -16 15 C-15.34 15 -14.68 15 -14 15 C-14.515625 15.9075 -15.03125 16.815 -15.5625 17.75 C-17.23876348 20.77789911 -17.23876348 20.77789911 -16.6875 23.375 C-16.460625 23.91125 -16.23375 24.4475 -16 25 C-15.34 23.68 -14.68 22.36 -14 21 C-13.34 21 -12.68 21 -12 21 C-11.67 21.66 -11.34 22.32 -11 23 C-10.34 23 -9.68 23 -9 23 C-10.99562363 31.35010941 -10.99562363 31.35010941 -15.1875 34.0625 C-16.5796875 34.5265625 -16.5796875 34.5265625 -18 35 C-18 35.99 -18 36.98 -18 38 C-12.75372585 38.31477645 -9.36223007 38.03459483 -5 35 C-0.65396922 30.00967894 1.40487655 24.62840754 1 18 C-0.06200184 13.12169889 -1.84449653 8.96821676 -6 6 C-11.72597473 4.43837053 -18.82912633 3.72971439 -24 7 Z M-37 64 C-40.37422887 69.89489786 -39.32420347 76.54450809 -38 83 C-36.26424351 83.87436418 -36.26424351 83.87436418 -34 84 C-30.21412929 81.83664531 -29.14104087 80.40297392 -27.6875 76.25 C-27.460625 75.1775 -27.23375 74.105 -27 73 C-31.455 73.495 -31.455 73.495 -36 74 C-37.24546405 71.50907189 -36.7767578 70.58919267 -36 68 C-35.34 68 -34.68 68 -34 68 C-33.67 66.68 -33.34 65.36 -33 64 C-34.32 64 -35.64 64 -37 64 Z " fill="#151414" transform="translate(103,93)"/>
<path d="M0 0 C2.57633888 3.86450831 2.66766027 5.40056256 2 10 C-0.00695017 13.29600955 -2.2662256 16.27241061 -5 19 C-5.66 19 -6.32 19 -7 19 C-7 19.66 -7 20.32 -7 21 C-6.01 21 -5.02 21 -4 21 C-2.35669953 24.28660093 -2.36565896 27.46137204 -3 31 C-6.11371662 37.47700595 -11.28050471 41.61806118 -18 44 C-23.04150523 44.58158856 -27.99642333 44.47479423 -33.0625 44.3125 C-34.41857832 44.28736642 -35.77470191 44.26456222 -37.13085938 44.24414062 C-40.42174736 44.1855839 -43.71027403 44.10361091 -47 44 C-47.33 42.35 -47.66 40.7 -48 39 C-47.236875 38.87625 -46.47375 38.7525 -45.6875 38.625 C-41.84587497 36.30215696 -41.63169428 33.52677712 -40.578125 29.3125 C-40 27 -40 27 -39 25 C-40.32 24.67 -41.64 24.34 -43 24 C-42.45276317 20.62537285 -41.9451 18.91765 -40 16 C-38.68 16 -37.36 16 -36 16 C-35.01 12.37 -34.02 8.74 -33 5 C-33.66 5 -34.32 5 -35 5 C-34 2 -34 2 -31.5625 0.4375 C-21.22263965 -3.73472435 -10.34163847 -4.67103745 0 0 Z M-21 6 C-21.66 9.3 -22.32 12.6 -23 16 C-18.63890395 15.49289581 -15.54924701 14.63658349 -12 12 C-11.67 11.01 -11.34 10.02 -11 9 C-12.66142137 5.82306399 -12.66142137 5.82306399 -15.4375 5.25 C-18.11746531 4.813127 -18.11746531 4.813127 -21 6 Z M-27 24 C-29.39073445 27.82517513 -29.55966552 31.59665524 -30 36 C-24.69985182 36.50477602 -22.18034682 35.20817314 -18 32 C-16.70366379 30.93354885 -16.70366379 30.93354885 -16.9375 28.4375 C-16.958125 27.633125 -16.97875 26.82875 -17 26 C-20.61973402 24.68373308 -23.09567131 24 -27 24 Z " fill="#151515" transform="translate(506,119)"/>
<path d="M0 0 C5.94 0 11.88 0 18 0 C16.98488665 5.07556675 16.98488665 5.07556675 14 8 C13.00011074 10.49018012 13.00011074 10.49018012 12.3125 13.1875 C12.06113281 14.08855469 11.80976563 14.98960937 11.55078125 15.91796875 C11.36902344 16.60503906 11.18726563 17.29210937 11 18 C13.64 18 16.28 18 19 18 C19.185625 16.63875 19.185625 16.63875 19.375 15.25 C20 12 20 12 21.125 10.125 C22.55912449 7.13755961 22.55912449 7.13755961 21 0 C26.61 0 32.22 0 38 0 C38.495 1.98 38.495 1.98 39 4 C37.67044081 5.66967898 36.33607456 7.33553001 35 9 C33.41843054 12.33935837 32.15311059 15.78500817 30.875 19.25 C30.35486328 20.60544922 30.35486328 20.60544922 29.82421875 21.98828125 C26.59499039 30.58718435 24.68189767 36.77328372 26 46 C19.73 46 13.46 46 7 46 C7 44.35 7 42.7 7 41 C8.31186835 39.97200233 9.64795772 38.97455602 11 38 C12.33278278 35.29792996 12.33278278 35.29792996 13.25 32.3125 C13.58515625 31.31863281 13.9203125 30.32476562 14.265625 29.30078125 C14.50796875 28.54152344 14.7503125 27.78226563 15 27 C11.04 27.495 11.04 27.495 7 28 C4.6451146 34.23352019 5.12442969 39.45688671 6 46 C3.39619004 46.19476139 0.79224467 46.38108614 -1.8125 46.5625 C-2.91948242 46.64661133 -2.91948242 46.64661133 -4.04882812 46.73242188 C-7.36788516 46.95769724 -9.81232564 47.06255812 -13 46 C-13.33 44.35 -13.66 42.7 -14 41 C-13.21238281 40.78601563 -12.42476563 40.57203125 -11.61328125 40.3515625 C-8.7767034 39.23122363 -8.7767034 39.23122363 -7.85546875 36.3984375 C-7.52482422 34.90183594 -7.52482422 34.90183594 -7.1875 33.375 C-6.83751953 31.87066406 -6.83751953 31.87066406 -6.48046875 30.3359375 C-6.32191406 29.56507813 -6.16335938 28.79421875 -6 28 C-7.32 27.34 -8.64 26.68 -10 26 C-9.3125 23.6875 -9.3125 23.6875 -8 21 C-7.21625 20.608125 -6.4325 20.21625 -5.625 19.8125 C-1.5258773 16.98215337 -0.28125999 12.70988309 1 8 C1.20060086 4.85569807 1.00648401 3.01945203 0 0 Z " fill="#0F0F0F" transform="translate(315,117)"/>
<path d="M0 0 C6.27 0 12.54 0 19 0 C19.33 1.32 19.66 2.64 20 4 C18.02 4.99 18.02 4.99 16 6 C16.33 10.95 16.66 15.9 17 21 C21.818911 14.71427656 21.818911 14.71427656 26 8 C26.4125 7.319375 26.825 6.63875 27.25 5.9375 C28.33205132 3.69508128 28.33205132 3.69508128 27 0 C32.94 0 38.88 0 45 0 C45.495 2.475 45.495 2.475 46 5 C45.08541016 5.51240234 45.08541016 5.51240234 44.15234375 6.03515625 C41.21615755 8.71555853 40.55938369 11.71849047 39.5625 15.4375 C37.77162906 21.7012877 35.61036348 27.5433324 32.8203125 33.44921875 C31.84809977 36.47233738 32.15148223 37.97298436 33 41 C33.495 43.475 33.495 43.475 34 46 C27.73 46 21.46 46 15 46 C14.67 44.35 14.34 42.7 14 41 C14.763125 40.525625 15.52625 40.05125 16.3125 39.5625 C19.88608115 36.15513193 20.76849064 32.68574293 22 28 C21.46890625 28.79664063 20.9378125 29.59328125 20.390625 30.4140625 C18.26041667 33.609375 16.13020833 36.8046875 14 40 C13.319375 41.11375 12.63875 42.2275 11.9375 43.375 C11.298125 44.24125 10.65875 45.1075 10 46 C6.75 46.375 6.75 46.375 4 46 C4 44.68 4 43.36 4 42 C4.90492188 41.89365234 4.90492188 41.89365234 5.828125 41.78515625 C8.81922654 40.70384076 9.33377246 39.23061543 10.75 36.4375 C11.17796875 35.61121094 11.6059375 34.78492188 12.046875 33.93359375 C12.36140625 33.29550781 12.6759375 32.65742188 13 32 C12.67 32 12.34 32 12 32 C12 30.35 12 28.7 12 27 C12.99 27 13.98 27 15 27 C15 20.07 15 13.14 15 6 C14.34 6 13.68 6 13 6 C13 11.28 13 16.56 13 22 C12.67 22 12.34 22 12 22 C11.91910458 19.22858283 11.85955938 16.45952181 11.8125 13.6875 C11.77479492 12.50897461 11.77479492 12.50897461 11.73632812 11.30664062 C11.72666016 10.54931641 11.71699219 9.79199219 11.70703125 9.01171875 C11.68346558 7.96697388 11.68346558 7.96697388 11.65942383 6.90112305 C12 5 12 5 15 2 C10.71 1.67 6.42 1.34 2 1 C1.67 1.99 1.34 2.98 1 4 C0.67 2.68 0.34 1.36 0 0 Z " fill="#070606" transform="translate(407,117)"/>
<path d="M0 0 C5.94 0 11.88 0 18 0 C18.33 1.32 18.66 2.64 19 4 C18.37746338 4.40597412 17.75492676 4.81194824 17.11352539 5.23022461 C14.7452695 7.21330038 14.14956335 8.42280022 13.18359375 11.31640625 C12.74950195 12.58774414 12.74950195 12.58774414 12.30664062 13.88476562 C11.87641602 15.21024414 11.87641602 15.21024414 11.4375 16.5625 C11.14681641 17.41908203 10.85613281 18.27566406 10.55664062 19.15820312 C8.56987646 25.06515967 6.75819261 31.02150374 5 37 C9.23440875 37.27788454 9.23440875 37.27788454 12.6875 34.6875 C15.06417038 32.0361595 15.06417038 32.0361595 17 29 C19.5448634 29.36355191 21.05348193 30.03667332 23.1875 31.5 C25.71781441 34.99008884 26.43548482 38.70057712 26 43 C24.99707031 44.61425781 24.99707031 44.61425781 23 46 C20.20010871 46.26159322 17.62772071 46.34904338 14.83203125 46.29296875 C14.03721848 46.28872391 13.2424057 46.28447906 12.42350769 46.28010559 C9.88615979 46.2633193 7.34960762 46.22566824 4.8125 46.1875 C3.09180835 46.17245305 1.37110424 46.15876466 -0.34960938 46.14648438 C-4.56671262 46.11341607 -8.78322142 46.06163495 -13 46 C-13.1171875 43.59765625 -13.1171875 43.59765625 -13 41 C-11.125 39.4375 -11.125 39.4375 -9 38 C-7.34798659 35.52197988 -6.8436723 33.34542236 -6.14453125 30.41796875 C-5.40238964 27.39565867 -4.51195715 24.49017603 -3.45703125 21.5625 C-3.18826172 20.81226563 -2.91949219 20.06203125 -2.64257812 19.2890625 C-2.08781808 17.7592301 -1.5226366 16.23313792 -0.94726562 14.7109375 C-0.54991211 13.58558594 -0.54991211 13.58558594 -0.14453125 12.4375 C0.09934326 11.77621094 0.34321777 11.11492187 0.59448242 10.43359375 C1.2718634 7.08258199 1.2718634 7.08258199 0 0 Z " fill="#131313" transform="translate(515,117)"/>
<path d="M0 0 C4.95 0 9.9 0 15 0 C13.68 1.65 12.36 3.3 11 5 C11.66 5 12.32 5 13 5 C13 11.93 13 18.86 13 26 C12.01 26 11.02 26 10 26 C10.680625 27.2065625 10.680625 27.2065625 11.375 28.4375 C12.23311396 33.32874957 10.46316916 35.2666329 7.7734375 39.2421875 C6 41 6 41 2 41 C2 36.05 2 31.1 2 26 C1.34 26 0.68 26 0 26 C-0.33 24.68 -0.66 23.36 -1 22 C-2.485 27.445 -2.485 27.445 -4 33 C-3.67 33 -3.34 33 -3 33 C-3 35.64 -3 38.28 -3 41 C-6.96 41 -10.92 41 -15 41 C-14.11054688 39.46214844 -13.22109375 37.92429688 -12.3046875 36.33984375 C-8.83229072 29.96970022 -6.42757191 23.42714039 -4.125 16.5625 C-3.7228125 15.40556641 -3.320625 14.24863281 -2.90625 13.05664062 C-0.6734735 6.67434212 -0.6734735 6.67434212 0 0 Z " fill="#131313" transform="translate(409,118)"/>
<path d="M0 0 C5.61 0 11.22 0 17 0 C17.33 1.65 17.66 3.3 18 5 C16.68889667 6.35519873 15.3507451 7.68430884 14 9 C12.70211817 11.64195946 11.79570575 14.39503649 10.875 17.1875 C10.48707275 18.32662842 10.48707275 18.32662842 10.09130859 19.48876953 C7.03552623 28.55065916 7.03552623 28.55065916 6 38 C6.66 38 7.32 38 8 38 C8.33 39.32 8.66 40.64 9 42 C7.22992286 42.08114106 5.45877902 42.13925505 3.6875 42.1875 C2.70136719 42.22230469 1.71523437 42.25710937 0.69921875 42.29296875 C-2 42 -2 42 -3.85546875 40.61328125 C-5 39 -5 39 -5 37 C-5.66 37 -6.32 37 -7 37 C-5.58440306 28.23995305 -3.58983032 19.94266222 -0.3125 11.6875 C1.31905028 7.10362065 1.52234646 4.56703939 0 0 Z " fill="#121212" transform="translate(231,117)"/>
<path d="M0 0 C4.95 0 9.9 0 15 0 C15.66 1.32 16.32 2.64 17 4 C17.66 4.33 18.32 4.66 19 5 C18.67 5.66 18.34 6.32 18 7 C17.236875 6.896875 16.47375 6.79375 15.6875 6.6875 C14.800625 6.790625 13.91375 6.89375 13 7 C9.90207225 11.11430824 8.63442564 15.83843241 7.125 20.6875 C0.66075694 40.52287629 0.66075694 40.52287629 -9 46 C-14.25394774 47.75131591 -19.86438351 47.8898402 -25 45.75 C-27.10907359 43.90456061 -28.16479824 42.67264562 -29 40 C-28.67 39.01 -28.34 38.02 -28 37 C-27.67 38.32 -27.34 39.64 -27 41 C-22.71 41.33 -18.42 41.66 -14 42 C-14.495 40.515 -14.495 40.515 -15 39 C-14.0925 38.690625 -13.185 38.38125 -12.25 38.0625 C-7.70703573 35.17946498 -6.81932098 31.90988297 -5 27 C-4.66097656 26.19949219 -4.32195312 25.39898437 -3.97265625 24.57421875 C-2.12639473 20.20589431 -0.5193518 15.78317898 0.875 11.25 C1.14054687 10.38890625 1.40609375 9.5278125 1.6796875 8.640625 C2.26712618 5.3741579 2.26712618 5.3741579 0 0 Z " fill="#1C1C1C" transform="translate(254,117)"/>
<path d="M0 0 C0.33 0 0.66 0 1 0 C1 8.25 1 16.5 1 25 C-3.40676845 26.76270738 -5.45463586 27.50504046 -10 27 C-10.66 26.01 -11.32 25.02 -12 24 C-11.34 22.68 -10.68 21.36 -10 20 C-9.34 20 -8.68 20 -8 20 C-8 19.01 -8 18.02 -8 17 C-8.99 16.67 -9.98 16.34 -11 16 C-11.83057001 18.90040319 -12.13532287 21.48572102 -12.125 24.5 C-12.12757812 25.2528125 -12.13015625 26.005625 -12.1328125 26.78125 C-12.07251313 29.01293034 -12.07251313 29.01293034 -11.4296875 31.15625 C-11 33 -11 33 -12 35 C-11.360625 35.12375 -10.72125 35.2475 -10.0625 35.375 C-9.381875 35.58125 -8.70125 35.7875 -8 36 C-7.67 36.66 -7.34 37.32 -7 38 C-4.03 38 -1.06 38 2 38 C-3.18008741 41.97140035 -6.51859967 42.56360003 -13 42 C-17.21245644 40.65967295 -18.74779896 38.13975973 -20.875 34.4375 C-23.79248517 28.11474823 -23.33631194 23.2090253 -21.26953125 16.69921875 C-19.62851641 12.77941474 -18.37233591 11.2318318 -14.6875 8.9375 C-10.59883685 7.89800937 -8.06227247 7.90631126 -4 9 C-3.01 9.99 -2.02 10.98 -1 12 C-0.67 8.04 -0.34 4.08 0 0 Z " fill="#292828" transform="translate(77,141)"/>
<path d="M0 0 C1.32 0.33 2.64 0.66 4 1 C4 4.63 4 8.26 4 12 C5.32 12 6.64 12 8 12 C8.39169887 14.66355234 8.40564529 16.39224373 6.88671875 18.66796875 C5.63610683 20.1510888 4.32135486 21.57954352 3 23 C3.99 23.33 4.98 23.66 6 24 C5.65978036 27.17538332 4.97533396 28.02276865 2.5625 30.25 C0 32 0 32 -2 32 C-2 32.66 -2 33.32 -2 34 C-0.515 34.495 -0.515 34.495 1 35 C1 36.32 1 37.64 1 39 C-1.31 39.99 -3.62 40.98 -6 42 C-5.34 43.32 -4.68 44.64 -4 46 C-5.88517053 47.88517053 -8.5703081 47.34967642 -11.08984375 47.5234375 C-13.4010461 47.87245461 -13.4010461 47.87245461 -15 51 C-14.34 51 -13.68 51 -13 51 C-13.33 51.99 -13.66 52.98 -14 54 C-17.96 53.67 -21.92 53.34 -26 53 C-25.67 52.34 -25.34 51.68 -25 51 C-24.34 51 -23.68 51 -23 51 C-22.67 48.36 -22.34 45.72 -22 43 C-20.68 43 -19.36 43 -18 43 C-17.67 43.99 -17.34 44.98 -17 46 C-16.34 43.03 -15.68 40.06 -15 37 C-13.68 37 -12.36 37 -11 37 C-10.34 34.69 -9.68 32.38 -9 30 C-7.68 30.33 -6.36 30.66 -5 31 C-5.495 26.05 -5.495 26.05 -6 21 C-4.68 20.67 -3.36 20.34 -2 20 C-2.66 19.01 -3.32 18.02 -4 17 C-4.125 13.8125 -4.125 13.8125 -4 11 C-2.68 10.67 -1.36 10.34 0 10 C-0.33 9.34 -0.66 8.68 -1 8 C-1.125 4.4375 -1.125 4.4375 -1 1 C-0.67 0.67 -0.34 0.34 0 0 Z " fill="#120F12" transform="translate(102,139)"/>
<path d="M0 0 C1.82879467 1.11967021 3.65520021 2.24327974 5.4765625 3.375 C6.78753906 4.179375 6.78753906 4.179375 8.125 5 C8.94097656 5.51820313 9.75695312 6.03640625 10.59765625 6.5703125 C13.15201768 7.92238337 15.20063816 8.53943831 18.0625 8.875 C20.33088037 8.24140898 20.33088037 8.24140898 22.0625 6.875 C22.3925 5.885 22.7225 4.895 23.0625 3.875 C24.0525 3.545 25.0425 3.215 26.0625 2.875 C27.5625 4.125 27.5625 4.125 29.0625 5.875 C29.0625 7.195 29.0625 8.515 29.0625 9.875 C29.7225 9.875 30.3825 9.875 31.0625 9.875 C30.79210418 13.11974984 30.2367292 14.66704902 28.125 17.1875 C23.67652978 19.63869788 20.02875962 19.83946201 15.0625 18.875 C10.31950593 16.74408962 6.2857725 13.98177035 2.4375 10.5 C-1.07998592 8.09329911 -3.73921995 8.59037084 -7.9375 8.875 C-8.2675 10.525 -8.5975 12.175 -8.9375 13.875 C-10.9175 13.875 -12.8975 13.875 -14.9375 13.875 C-17.1595333 9.56164124 -17.15110476 6.55604691 -15.9375 1.875 C-12.20950363 -2.94032864 -5.13210977 -1.96548885 0 0 Z " fill="#272627" transform="translate(21.9375,157.125)"/>
<path d="M0 0 C6.27 0 12.54 0 19 0 C19.33 1.32 19.66 2.64 20 4 C18.02 4.99 18.02 4.99 16 6 C16.33 10.95 16.66 15.9 17 21 C22.57947572 13.72383936 22.57947572 13.72383936 27.0625 5.75 C28 4 28 4 30 3 C28.8059963 9.76602099 26.50775916 15.15373474 23 21 C23.66 21.33 24.32 21.66 25 22 C24.67 22.99 24.34 23.98 24 25 C23.01 25.33 22.02 25.66 21 26 C21 26.99 21 27.98 21 29 C19.40510057 31.85379477 17.60480098 34.53189891 15.80078125 37.2578125 C14.77084336 38.82617779 13.76853731 40.41552688 12.85546875 42.0546875 C11.9375 43.6875 11.9375 43.6875 10 46 C6.75 46.375 6.75 46.375 4 46 C4 44.68 4 43.36 4 42 C4.90492188 41.89365234 4.90492188 41.89365234 5.828125 41.78515625 C8.81922654 40.70384076 9.33377246 39.23061543 10.75 36.4375 C11.17796875 35.61121094 11.6059375 34.78492188 12.046875 33.93359375 C12.36140625 33.29550781 12.6759375 32.65742188 13 32 C12.67 32 12.34 32 12 32 C12 30.35 12 28.7 12 27 C12.99 27 13.98 27 15 27 C15 20.07 15 13.14 15 6 C14.34 6 13.68 6 13 6 C13 11.28 13 16.56 13 22 C12.67 22 12.34 22 12 22 C11.91910458 19.22858283 11.85955938 16.45952181 11.8125 13.6875 C11.77479492 12.50897461 11.77479492 12.50897461 11.73632812 11.30664062 C11.72666016 10.54931641 11.71699219 9.79199219 11.70703125 9.01171875 C11.68346558 7.96697388 11.68346558 7.96697388 11.65942383 6.90112305 C12 5 12 5 15 2 C10.71 1.67 6.42 1.34 2 1 C1.67 1.99 1.34 2.98 1 4 C0.67 2.68 0.34 1.36 0 0 Z " fill="#1E1E1E" transform="translate(407,117)"/>
<path d="M0 0 C1.32 0 2.64 0 4 0 C4 0.66 4 1.32 4 2 C4.99 2.33 5.98 2.66 7 3 C10 8.22222222 10 8.22222222 10 11 C11.98 11 13.96 11 16 11 C15.95875 11.78375 15.9175 12.5675 15.875 13.375 C15.71271266 16.16116119 15.71271266 16.16116119 18 18 C9.74365768 20.75211411 0.36132813 18.33210349 -8 17 C-8.35240267 11.56074136 -8.35240267 11.56074136 -6.7578125 9.0234375 C-6.21898437 8.47945312 -5.68015625 7.93546875 -5.125 7.375 C-2.85621331 5.04045138 -1.34003981 2.97931181 0 0 Z " fill="#262626" transform="translate(145,145)"/>
<path d="M0 0 C0.66 0.33 1.32 0.66 2 1 C1.67 1.66 1.34 2.32 1 3 C1.66 3.33 2.32 3.66 3 4 C2.319375 4.78375 1.63875 5.5675 0.9375 6.375 C-2.07973487 10.77910423 -0.8175872 14.95821228 0 20 C-6.27 20 -12.54 20 -19 20 C-19.33 18.35 -19.66 16.7 -20 15 C-7.67123288 5 -7.67123288 5 -3 5 C-1.3553326 2.53673288 -1.3553326 2.53673288 0 0 Z " fill="#151515" transform="translate(362,143)"/>
<path d="M0 0 C2.5448634 0.36355191 4.05348193 1.03667332 6.1875 2.5 C8.71781441 5.99008884 9.43548482 9.70057712 9 14 C7.99707031 15.61425781 7.99707031 15.61425781 6 17 C3.20010871 17.26159322 0.62772071 17.34904338 -2.16796875 17.29296875 C-2.96278152 17.28872391 -3.7575943 17.28447906 -4.57649231 17.28010559 C-7.11384021 17.2633193 -9.65039238 17.22566824 -12.1875 17.1875 C-13.90819165 17.17245305 -15.62889576 17.15876466 -17.34960938 17.14648438 C-21.56671262 17.11341607 -25.78322142 17.06163495 -30 17 C-30 15.35 -30 13.7 -30 12 C-19.11 12 -8.22 12 3 12 C2.34 9.03 1.68 6.06 1 3 C0.34 2.67 -0.32 2.34 -1 2 C-0.67 1.34 -0.34 0.68 0 0 Z " fill="#313131" transform="translate(532,146)"/>
<path d="M0 0 C3.36123058 1.36939024 5.98493949 2.98995966 9 5 C9.6875 7.625 9.6875 7.625 10 10 C9.01 10 8.02 10 7 10 C7 9.34 7 8.68 7 8 C5.02 7.34 3.04 6.68 1 6 C1 6.66 1 7.32 1 8 C-0.65 8 -2.3 8 -4 8 C-3.01 7.67 -2.02 7.34 -1 7 C-1 6.34 -1 5.68 -1 5 C-2.65 5.33 -4.3 5.66 -6 6 C-6 6.7425 -6 7.485 -6 8.25 C-6 10.5 -6 12.75 -6 15 C-7.98 15 -9.96 15 -12 15 C-14.2220333 10.68664124 -14.21360476 7.68104691 -13 3 C-9.80581967 -1.12581626 -4.77584108 -0.6301457 0 0 Z " fill="#171717" transform="translate(19,156)"/>
<path d="M0 0 C0.66 0.99 1.32 1.98 2 3 C0.96555464 7.24595873 -0.99155418 9.19241788 -4.4375 11.75 C-5.21996094 12.34296875 -6.00242187 12.9359375 -6.80859375 13.546875 C-12.21839512 17.13412297 -18.73173859 16.39632952 -25 16.625 C-26.80210937 16.70234375 -26.80210937 16.70234375 -28.640625 16.78125 C-29.79046875 16.82507813 -30.9403125 16.86890625 -32.125 16.9140625 C-33.70667969 16.9752124 -33.70667969 16.9752124 -35.3203125 17.03759766 C-38 17 -38 17 -41 16 C-41.33 14.35 -41.66 12.7 -42 11 C-40.69180298 11.0314209 -40.69180298 11.0314209 -39.35717773 11.06347656 C-36.09372202 11.13201195 -32.83104076 11.18197177 -29.56713867 11.21972656 C-28.15978866 11.23973246 -26.75252062 11.26694662 -25.34545898 11.30175781 C-14.45532556 11.74745308 -14.45532556 11.74745308 -5 7 C-4.67 6.34 -4.34 5.68 -4 5 C-3.01 5 -2.02 5 -1 5 C-0.67 3.35 -0.34 1.7 0 0 Z " fill="#373737" transform="translate(299,147)"/>
<path d="M0 0 C1.32 0.33 2.64 0.66 4 1 C4 4.63 4 8.26 4 12 C5.32 12 6.64 12 8 12 C8.3125 14.125 8.3125 14.125 8 17 C5.83577594 19.9046165 3.55726477 22.44273523 1 25 C1 23.68 1 22.36 1 21 C0.67 21.99 0.34 22.98 0 24 C-2.0625 24.6875 -2.0625 24.6875 -4 25 C-4.33 24.01 -4.66 23.02 -5 22 C-5 23.65 -5 25.3 -5 27 C-5.33 27 -5.66 27 -6 27 C-6 25.02 -6 23.04 -6 21 C-4.68 20.67 -3.36 20.34 -2 20 C-2.66 19.01 -3.32 18.02 -4 17 C-4.125 13.8125 -4.125 13.8125 -4 11 C-2.68 10.67 -1.36 10.34 0 10 C-0.33 9.34 -0.66 8.68 -1 8 C-1.125 4.4375 -1.125 4.4375 -1 1 C-0.67 0.67 -0.34 0.34 0 0 Z " fill="#4E4A4C" transform="translate(102,139)"/>
<path d="M0 0 C5.94 0 11.88 0 18 0 C18.33 1.65 18.66 3.3 19 5 C18.08734375 5.50853516 18.08734375 5.50853516 17.15625 6.02734375 C14.19407508 8.7373045 13.51708387 11.80791346 12.5 15.5625 C12.08257901 17.00221967 11.66200005 18.44102747 11.23828125 19.87890625 C11.03283691 20.58031738 10.82739258 21.28172852 10.61572266 22.00439453 C9.34967978 26.10773891 7.69584862 30.05880992 6 34 C5.01 33.34 4.02 32.68 3 32 C3.7735439 27.5499497 5.07749632 23.29808743 6.4375 19 C6.65470703 18.30132812 6.87191406 17.60265625 7.09570312 16.8828125 C10.38594496 6.40937003 10.38594496 6.40937003 14 4 C14.33 3.34 14.66 2.68 15 2 C8.07 1.505 8.07 1.505 1 1 C0.67 1.66 0.34 2.32 0 3 C0 2.01 0 1.02 0 0 Z " fill="#303030" transform="translate(434,117)"/>
<path d="M0 0 C0.66 0.33 1.32 0.66 2 1 C2.6249225 11.72783633 2.6249225 11.72783633 0.25 16.5625 C-2.92851483 20.00589107 -5.31844742 22.16400847 -10 23 C-8.35 24.65 -6.7 26.3 -5 28 C-5.66 28 -6.32 28 -7 28 C-7.33 28.66 -7.66 29.32 -8 30 C-9.33920838 28.88200014 -10.67122556 27.75538103 -12 26.625 C-12.7425 25.99851562 -13.485 25.37203125 -14.25 24.7265625 C-14.8275 24.15679687 -15.405 23.58703125 -16 23 C-16 22.34 -16 21.68 -16 21 C-16.99 21 -17.98 21 -19 21 C-19 20.34 -19 19.68 -19 19 C-19.66 19 -20.32 19 -21 19 C-21 17.35 -21 15.7 -21 14 C-19.125 14.25 -19.125 14.25 -17 15 C-15.75 17.0625 -15.75 17.0625 -15 19 C-10.4681066 19.30899273 -8.44414008 18.95212007 -5 16 C-4.34 16 -3.68 16 -3 16 C-2.95101562 15.07316406 -2.90203125 14.14632812 -2.8515625 13.19140625 C-2.77679688 11.99386719 -2.70203125 10.79632813 -2.625 9.5625 C-2.55539063 8.36753906 -2.48578125 7.17257813 -2.4140625 5.94140625 C-2.27742188 4.97074219 -2.14078125 4.00007813 -2 3 C-1.34 2.67 -0.68 2.34 0 2 C0 1.34 0 0.68 0 0 Z M-1 6 C0 9 0 9 0 9 Z " fill="#727172" transform="translate(61,80)"/>
<path d="M0 0 C0.66 0.33 1.32 0.66 2 1 C2 1.99 2 2.98 2 4 C-2.52248895 6.61051792 -5.72660789 7.36203618 -10.9296875 7.29296875 C-12.21875 7.28330078 -13.5078125 7.27363281 -14.8359375 7.26367188 C-16.18229786 7.23861188 -17.52865203 7.21321712 -18.875 7.1875 C-20.24477705 7.17243504 -21.61457002 7.15874982 -22.984375 7.14648438 C-26.32332358 7.11121379 -29.66145675 7.06191896 -33 7 C-33.33 5.35 -33.66 3.7 -34 2 C-33.1121582 2.01047363 -32.22431641 2.02094727 -31.30957031 2.03173828 C-28.00713493 2.06587756 -24.70488782 2.09092668 -21.40234375 2.10986328 C-19.97457922 2.11990427 -18.54683517 2.13353981 -17.11914062 2.15087891 C-15.06375059 2.17521152 -13.00863308 2.18650202 -10.953125 2.1953125 C-9.09929199 2.21102295 -9.09929199 2.21102295 -7.20800781 2.22705078 C-4.13194807 2.00933879 -2.63655607 1.44317555 0 0 Z " fill="#3F3F3F" transform="translate(492,156)"/>
<path d="M0 0 C0.33 0 0.66 0 1 0 C1.22419881 1.56030251 1.42863758 3.1234505 1.625 4.6875 C1.74101562 5.55761719 1.85703125 6.42773438 1.9765625 7.32421875 C2 10 2 10 0 15 C0.495 20.445 0.495 20.445 1 26 C-11.21 26 -23.42 26 -36 26 C-36 25.67 -36 25.34 -36 25 C-24.12 25 -12.24 25 0 25 C-1.15433086 23.61446059 -1.15433086 23.61446059 -4.30859375 23.9375 C-6.38631788 23.96168302 -8.46351417 24.00048309 -10.54101562 24.0390625 C-15.79969844 24.10015078 -15.79969844 24.10015078 -18 23 C-18 22.34 -18 21.68 -18 21 C-16.02 20.34 -14.04 19.68 -12 19 C-12.33 19.66 -12.66 20.32 -13 21 C-9.37 21.33 -5.74 21.66 -2 22 C-2.48484276 17.35413108 -2.48484276 17.35413108 -4 13 C-3.42983939 10.77092986 -2.77074336 8.56411584 -2.0625 6.375 C-1.49208984 4.59222656 -1.49208984 4.59222656 -0.91015625 2.7734375 C-0.60980469 1.85820312 -0.30945313 0.94296875 0 0 Z " fill="#424242" transform="translate(408,137)"/>
<path d="M0 0 C1.32 0 2.64 0 4 0 C2.97514056 5.85450954 -1.48577002 9.21261105 -6.1484375 12.52734375 C-11.76036049 15.92403398 -17.47267167 18.06068835 -24.05078125 16.51953125 C-26.95096249 15.43271385 -28.72586142 14.41716741 -30.4375 11.8125 C-30.623125 11.214375 -30.80875 10.61625 -31 10 C-29.68 10.33 -28.36 10.66 -27 11 C-27 11.66 -27 12.32 -27 13 C-22.38 13 -17.76 13 -13 13 C-13 12.34 -13 11.68 -13 11 C-11.4011809 9.76969274 -9.74469415 8.61359837 -8.0625 7.5 C-4.43229314 5.29021822 -4.43229314 5.29021822 -2 2 C-1.34 2 -0.68 2 0 2 C0 1.34 0 0.68 0 0 Z " fill="#282828" transform="translate(577,147)"/>
<path d="M0 0 C5.61 0 11.22 0 17 0 C17.33 1.65 17.66 3.3 18 5 C16.67857072 6.34513205 15.34259226 7.67599034 14 9 C12.71073853 11.79267146 11.80393957 14.69564558 10.875 17.625 C10.37760393 19.16055094 9.87521633 20.69449649 9.3671875 22.2265625 C9.15175293 22.90283691 8.93631836 23.57911133 8.71435547 24.27587891 C8 26 8 26 6 28 C5.67 26.68 5.34 25.36 5 24 C4.67 24.66 4.34 25.32 4 26 C5.48693325 16.80449173 7.28541536 8.71458464 14 2 C9.38 2 4.76 2 0 2 C0 1.34 0 0.68 0 0 Z " fill="#1C1C1C" transform="translate(231,117)"/>
<path d="M0 0 C1.35439668 2.70879335 1.06501451 5.00933268 1 8 C1.99 8 2.98 8 4 8 C4.99 8 5.98 8 7 8 C7 8.33 7 8.66 7 9 C8.24716797 9.07347656 8.24716797 9.07347656 9.51953125 9.1484375 C10.60621094 9.22320312 11.69289062 9.29796875 12.8125 9.375 C13.89144531 9.44460937 14.97039062 9.51421875 16.08203125 9.5859375 C19 10 19 10 22 12 C21.67 12.99 21.34 13.98 21 15 C14.4 14.67 7.8 14.34 1 14 C1 13.01 1 12.02 1 11 C0.34 11 -0.32 11 -1 11 C-1.33 8.69 -1.66 6.38 -2 4 C-2.99 4.495 -2.99 4.495 -4 5 C-4 3.68 -4 2.36 -4 1 C-2.68 0.67 -1.36 0.34 0 0 Z " fill="#303030" transform="translate(194,149)"/>
<path d="M0 0 C1.04449911 3.13349732 0.93423645 3.98968256 0 7 C0.66 7.33 1.32 7.66 2 8 C2.4140625 10.50390625 2.4140625 10.50390625 2.625 13.5625 C2.69976562 14.57441406 2.77453125 15.58632812 2.8515625 16.62890625 C2.92503906 17.80259766 2.92503906 17.80259766 3 19 C0.39619004 19.19476139 -2.20775533 19.38108614 -4.8125 19.5625 C-5.55048828 19.61857422 -6.28847656 19.67464844 -7.04882812 19.73242188 C-10.36788516 19.95769724 -12.81232564 20.06255812 -16 19 C-16.33 17.35 -16.66 15.7 -17 14 C-12.05 14 -7.1 14 -2 14 C-0.70200214 9.4785542 -0.70200214 9.4785542 -1.5625 7 C-2.17487127 4.20058846 -1.19606286 2.532839 0 0 Z " fill="#2A2A2A" transform="translate(318,144)"/>
<path d="M0 0 C0.33 0 0.66 0 1 0 C1.66 3.96 2.32 7.92 3 12 C-2.94 12 -8.88 12 -15 12 C-15 11.01 -15 10.02 -15 9 C-12.69 9 -10.38 9 -8 9 C-7.67 8.01 -7.34 7.02 -7 6 C-5.125 3.8125 -5.125 3.8125 -3 2 C-2.01 2 -1.02 2 0 2 C0 1.34 0 0.68 0 0 Z " fill="#111111" transform="translate(533,147)"/>
<path d="M0 0 C0.33 0 0.66 0 1 0 C1 1.98 1 3.96 1 6 C1.99 6.33 2.98 6.66 4 7 C2.515 9.475 2.515 9.475 1 12 C1.66 12 2.32 12 3 12 C2.67 12.99 2.34 13.98 2 15 C-1.96 14.67 -5.92 14.34 -10 14 C-9.67 13.34 -9.34 12.68 -9 12 C-8.34 12 -7.68 12 -7 12 C-6.67 9.36 -6.34 6.72 -6 4 C-4.68 4 -3.36 4 -2 4 C-1.67 4.99 -1.34 5.98 -1 7 C-0.67 4.69 -0.34 2.38 0 0 Z " fill="#3C3A3D" transform="translate(86,178)"/>
<path d="M0 0 C2.5625 1.5 2.5625 1.5 4 4 C3.70825164 6.88445552 2.92748257 9.21755228 2 12 C1.34 11.67 0.68 11.34 0 11 C0 9.35 0 7.7 0 6 C-3.58327753 4.99782936 -3.58327753 4.99782936 -7 6 C-7.90343684 7.88263881 -7.90343684 7.88263881 -8.625 10.0625 C-9.01558594 11.16271484 -9.01558594 11.16271484 -9.4140625 12.28515625 C-9.60742188 12.85105469 -9.80078125 13.41695312 -10 14 C-10.33 13.01 -10.66 12.02 -11 11 C-11.66 11 -12.32 11 -13 11 C-12.57576756 9.53775201 -12.13509755 8.08026588 -11.6875 6.625 C-11.44386719 5.81289062 -11.20023437 5.00078125 -10.94921875 4.1640625 C-8.77602767 -0.79045543 -4.76413983 -0.5014884 0 0 Z " fill="#262626" transform="translate(292,120)"/>
<path d="M0 0 C1.79487005 0.0643113 3.58738778 0.20139986 5.375 0.375 C6.35210937 0.46523437 7.32921875 0.55546875 8.3359375 0.6484375 C11 1 11 1 14 2 C13.67 4.97 13.34 7.94 13 11 C12.67 11 12.34 11 12 11 C12 9.35 12 7.7 12 6 C8.7 5.34 5.4 4.68 2 4 C1.34 7.63 0.68 11.26 0 15 C-0.33 15 -0.66 15 -1 15 C-1 13.35 -1 11.7 -1 10 C-1.66 10 -2.32 10 -3 10 C-2.69201674 8.51988629 -2.378482 7.04092675 -2.0625 5.5625 C-1.88847656 4.73878906 -1.71445312 3.91507813 -1.53515625 3.06640625 C-1 1 -1 1 0 0 Z " fill="#1D1D1D" transform="translate(477,139)"/>
<path d="M0 0 C0.33 1.32 0.66 2.64 1 4 C1.66 4 2.32 4 3 4 C2.72960418 7.24474984 2.1742292 8.79204902 0.0625 11.3125 C-4.3181127 13.726307 -8.10179048 13.7910152 -13 13 C-15.64947757 11.91014398 -17.62783344 10.65020283 -20 9 C-19.34 8.67 -18.68 8.34 -18 8 C-17.67 7.34 -17.34 6.68 -17 6 C-16.071875 6.7425 -16.071875 6.7425 -15.125 7.5 C-10.73970259 9.60494276 -6.78286739 9.25075227 -2 9 C-1.34 6.03 -0.68 3.06 0 0 Z " fill="#545355" transform="translate(50,163)"/>
<path d="M0 0 C2.4375 0.375 2.4375 0.375 5 1 C6.5547669 4.10953379 6.28644437 6.56266761 6 10 C3.89237617 13.91415855 1.74338472 16.59353839 -2 19 C-2 18.34 -2 17.68 -2 17 C-3.65 17.33 -5.3 17.66 -7 18 C-6.236875 17.46375 -5.47375 16.9275 -4.6875 16.375 C-1.63212243 13.67489889 -0.33306146 11.85106644 1 8 C0.9446938 5.21457875 0.52261166 2.75558874 0 0 Z " fill="#262626" transform="translate(301,119)"/>
<path d="M0 0 C6.27 0 12.54 0 19 0 C19.33 1.32 19.66 2.64 20 4 C18.02 4.99 18.02 4.99 16 6 C16.33 11.94 16.66 17.88 17 24 C16.34 24.33 15.68 24.66 15 25 C15 18.73 15 12.46 15 6 C14.34 6 13.68 6 13 6 C13 11.28 13 16.56 13 22 C12.67 22 12.34 22 12 22 C11.91910458 19.22858283 11.85955938 16.45952181 11.8125 13.6875 C11.77479492 12.50897461 11.77479492 12.50897461 11.73632812 11.30664062 C11.72666016 10.54931641 11.71699219 9.79199219 11.70703125 9.01171875 C11.68346558 7.96697388 11.68346558 7.96697388 11.65942383 6.90112305 C12 5 12 5 15 2 C10.71 1.67 6.42 1.34 2 1 C1.67 1.99 1.34 2.98 1 4 C0.67 2.68 0.34 1.36 0 0 Z " fill="#4F4F4F" transform="translate(407,117)"/>
<path d="M0 0 C0 0.66 0 1.32 0 2 C-2.95664519 3.4783226 -5.74229737 3.06032783 -9 3 C-10.45830754 7.37492261 -10.54684485 11.92198957 -9.375 16.375 C-9.25125 16.91125 -9.1275 17.4475 -9 18 C-9.66 18.66 -10.32 19.32 -11 20 C-11.99 18.02 -12.98 16.04 -14 14 C-13.67 13.67 -13.34 13.34 -13 13 C-13.66 12.67 -14.32 12.34 -15 12 C-14.58789699 6.74568665 -13.7645482 3.7645482 -10 0 C-6.30581799 -1.231394 -3.7943739 -0.64432764 0 0 Z " fill="#727172" transform="translate(49,76)"/>
<path d="M0 0 C9.57 0.33 19.14 0.66 29 1 C29 1.33 29 1.66 29 2 C22.565 2.495 22.565 2.495 16 3 C21.28 3.33 26.56 3.66 32 4 C32 4.33 32 4.66 32 5 C27.75074388 5.22594826 23.50067556 5.42771126 19.25 5.625 C18.0434375 5.68945312 16.836875 5.75390625 15.59375 5.8203125 C14.43359375 5.871875 13.2734375 5.9234375 12.078125 5.9765625 C11.00981445 6.02893066 9.94150391 6.08129883 8.84082031 6.13525391 C5.89001791 5.99476366 4.38851447 5.71286027 2 4 C1.34 2.68 0.68 1.36 0 0 Z " fill="#3E3E3E" transform="translate(590,158)"/>
<path d="M0 0 C2 3 2 3 2 7 C-4.27 7 -10.54 7 -17 7 C-17 5.35 -17 3.7 -17 2 C-15.41058594 2.03480469 -15.41058594 2.03480469 -13.7890625 2.0703125 C-12.4010487 2.08906944 -11.0130273 2.10726972 -9.625 2.125 C-8.92632812 2.14175781 -8.22765625 2.15851563 -7.5078125 2.17578125 C-5.67102514 2.19344267 -3.83398037 2.10303261 -2 2 C-1.34 1.34 -0.68 0.68 0 0 Z " fill="#454545" transform="translate(339,156)"/>
<path d="M0 0 C3 1 3 1 4 2 C4 1.67 4 1.34 4 1 C7.3 0.67 10.6 0.34 14 0 C13.67 0.66 13.34 1.32 13 2 C13.66 2.66 14.32 3.32 15 4 C11.37 4 7.74 4 4 4 C4.165 4.886875 4.33 5.77375 4.5 6.6875 C5.34061774 12.41790827 5.0781681 18.22424581 5 24 C4.01 24.33 3.02 24.66 2 25 C1.34 16.75 0.68 8.5 0 0 Z " fill="#A8A8AA" transform="translate(83,135)"/>
<path d="M0 0 C2 2 2 2 2 4 C3.32 4 4.64 4 6 4 C5.65978036 7.17538332 4.97533396 8.02276865 2.5625 10.25 C0 12 0 12 -2 12 C-2.33 12.66 -2.66 13.32 -3 14 C-5.60018816 10.09971775 -5.15085514 6.52565431 -5 2 C-4.01 2.495 -4.01 2.495 -3 3 C-3.33 3.66 -3.66 4.32 -4 5 C-2.68 4.67 -1.36 4.34 0 4 C0 2.68 0 1.36 0 0 Z " fill="#221E20" transform="translate(102,159)"/>
<path d="M0 0 C1.32 0 2.64 0 4 0 C3.37121722 4.6529926 3.37121722 4.6529926 1.5625 6.34375 C-0.44980354 8.47679175 -0.92027208 10.37433096 -1.6875 13.1875 C-1.93886719 14.08855469 -2.19023437 14.98960937 -2.44921875 15.91796875 C-2.63097656 16.60503906 -2.81273437 17.29210937 -3 18 C-4.33333333 18 -5.66666667 18 -7 18 C-6.34262062 11.55768209 -5.1112388 5.38106183 0 1 C0 0.67 0 0.34 0 0 Z " fill="#2C2C2C" transform="translate(329,117)"/>
<path d="M0 0 C3.02002718 1.71134874 3.94187235 2.85468088 5.25 6.125 C6.09769821 10.50477408 6.18123033 14.559857 6 19 C5.01 19.33 4.02 19.66 3 20 C2.67 19.01 2.34 18.02 2 17 C1.34 17 0.68 17 0 17 C0.01160156 16.32453125 0.02320313 15.6490625 0.03515625 14.953125 C0.04417969 14.06109375 0.05320312 13.1690625 0.0625 12.25 C0.07990234 10.92742187 0.07990234 10.92742187 0.09765625 9.578125 C0.09602189 7.04690579 0.09602189 7.04690579 -0.56640625 4.859375 C-1 3 -1 3 0 0 Z M4 16 C5 19 5 19 5 19 Z " fill="#3A3A3A" transform="translate(582,119)"/>
<path d="M0 0 C0.19335938 0.64453125 0.38671875 1.2890625 0.5859375 1.953125 C1.88708247 4.34351201 1.88708247 4.34351201 5.0390625 4.609375 C6.81410156 4.67898437 6.81410156 4.67898437 8.625 4.75 C10.40777344 4.83507812 10.40777344 4.83507812 12.2265625 4.921875 C13.14179688 4.94765625 14.05703125 4.9734375 15 5 C14.67 4.01 14.34 3.02 14 2 C15.65 1.67 17.3 1.34 19 1 C18.01 2.32 17.02 3.64 16 5 C16.928125 4.525625 17.85625 4.05125 18.8125 3.5625 C22 2 22 2 25 1 C25 1.66 25 2.32 25 3 C19.60540561 6.08467498 15.20988129 7.55643705 9 8 C9.66 8.66 10.32 9.32 11 10 C4.63010502 9.39906651 4.63010502 9.39906651 2.125 7.8125 C0.56567295 5.30025086 0.32316562 2.90849054 0 0 Z " fill="#484848" transform="translate(225,154)"/>
<path d="M0 0 C1.875 0.25 1.875 0.25 4 1 C4.2784375 1.6496875 4.556875 2.299375 4.84375 2.96875 C5.82722583 5.1963955 5.82722583 5.1963955 8.1640625 5.828125 C8.97617187 5.96734375 9.78828125 6.1065625 10.625 6.25 C11.44226562 6.39953125 12.25953125 6.5490625 13.1015625 6.703125 C13.72804688 6.80109375 14.35453125 6.8990625 15 7 C13.02 7.99 13.02 7.99 11 9 C12.65 10.65 14.3 12.3 16 14 C15.34 14 14.68 14 14 14 C13.67 14.66 13.34 15.32 13 16 C11.66079162 14.88200014 10.32877444 13.75538103 9 12.625 C8.2575 11.99851562 7.515 11.37203125 6.75 10.7265625 C6.1725 10.15679687 5.595 9.58703125 5 9 C5 8.34 5 7.68 5 7 C4.01 7 3.02 7 2 7 C2 6.34 2 5.68 2 5 C1.34 5 0.68 5 0 5 C0 3.35 0 1.7 0 0 Z " fill="#7B7B7B" transform="translate(40,94)"/>
<path d="M0 0 C3.63 0.33 7.26 0.66 11 1 C8 4 8 4 5.5 4.1875 C2.87717377 4.72163116 2.87717377 4.72163116 2.01171875 6.8359375 C1.25694703 8.87489428 0.58646597 10.90684097 0 13 C-0.66 13 -1.32 13 -2 13 C-3.62514468 14.45833358 -3.62514468 14.45833358 -5 16 C-3.41078475 10.63904723 -1.81027062 5.29156027 0 0 Z " fill="#1F1F1F" transform="translate(276,139)"/>
<path d="M0 0 C2.0625 1.625 2.0625 1.625 3 4 C2.8125 7.1875 2.8125 7.1875 2 10 C1.01 10.495 1.01 10.495 0 11 C-0.33 9.02 -0.66 7.04 -1 5 C-2.093125 5 -3.18625 5 -4.3125 5 C-6.54166667 5 -8.77083333 5 -11 5 C-11.33 4.34 -11.66 3.68 -12 3 C-9.9290895 -1.141821 -4.08844082 -0.60349126 0 0 Z " fill="#262626" transform="translate(494,120)"/>
<path d="M0 0 C0 0.99 0 1.98 0 3 C-5.17338614 4.72446205 -10.6476453 4.1846059 -16.0625 4.1875 C-17.87717773 4.20586914 -17.87717773 4.20586914 -19.72851562 4.22460938 C-21.45811523 4.22750977 -21.45811523 4.22750977 -23.22265625 4.23046875 C-24.28234619 4.23457764 -25.34203613 4.23868652 -26.43383789 4.24291992 C-29 4 -29 4 -31 2 C-30.29915283 1.97494385 -29.59830566 1.9498877 -28.8762207 1.92407227 C-25.68814512 1.80773455 -22.50033758 1.68517956 -19.3125 1.5625 C-17.65831055 1.50352539 -17.65831055 1.50352539 -15.97070312 1.44335938 C-14.3706543 1.38051758 -14.3706543 1.38051758 -12.73828125 1.31640625 C-11.26935425 1.26141968 -11.26935425 1.26141968 -9.77075195 1.20532227 C-6.47003681 0.9607279 -3.29627936 0 0 0 Z " fill="#303030" transform="translate(491,159)"/>
<path d="M0 0 C0.99 0.33 1.98 0.66 3 1 C4.17710027 7.09951956 4.04188131 10.35079186 1 16 C-0.6875 18.4375 -0.6875 18.4375 -2 20 C-4 19 -4 19 -5 16 C-3.68 15.67 -2.36 15.34 -1 15 C-0.67 10.05 -0.34 5.1 0 0 Z " fill="#787878" transform="translate(47,125)"/>
<path d="M0 0 C0.33 0 0.66 0 1 0 C1.08184423 2.97973615 1.14089764 5.95716832 1.1875 8.9375 C1.22520508 10.18370117 1.22520508 10.18370117 1.26367188 11.45507812 C1.33842901 17.8592731 0.81171107 24.66779069 -3.47973633 29.75366211 C-5 31 -5 31 -7 31 C-6.67 29.68 -6.34 28.36 -6 27 C-5.01 27 -4.02 27 -3 27 C-3 26.34 -3 25.68 -3 25 C-3.66 24.67 -4.32 24.34 -5 24 C-4.71125 23.29875 -4.4225 22.5975 -4.125 21.875 C-2.03570583 16.53569268 -0.72728301 11.87895581 -0.375 6.125 C-0.30023438 4.97257813 -0.22546875 3.82015625 -0.1484375 2.6328125 C-0.09945312 1.76398438 -0.05046875 0.89515625 0 0 Z " fill="#373737" transform="translate(86,147)"/>
<path d="M0 0 C0.66 0 1.32 0 2 0 C2.75 1.6875 2.75 1.6875 3 4 C1.1875 6.5 1.1875 6.5 -1 9 C-1.70885894 10.31138904 -2.39456452 11.63777017 -3 13 C-4.98 13 -6.96 13 -9 13 C-9 11.68 -9 10.36 -9 9 C-8.39414062 8.91878906 -7.78828125 8.83757812 -7.1640625 8.75390625 C-4.31600724 7.76171371 -3.80114989 6.54597416 -2.375 3.9375 C-1.1484375 1.71484375 -1.1484375 1.71484375 0 0 Z " fill="#2B2B2B" transform="translate(420,150)"/>
<path d="M0 0 C5.94 0 11.88 0 18 0 C18.33 1.32 18.66 2.64 19 4 C18.401875 4.33 17.80375 4.66 17.1875 5 C14.10071812 7.82220057 13.23011277 11.07668579 12 15 C11.67 15 11.34 15 11 15 C10.61936779 12.6739143 10.28730055 10.33944736 10 8 C10.33 7.67 10.66 7.34 11 7 C11.309375 6.34 11.61875 5.68 11.9375 5 C13 3 13 3 15 2 C10.71 1.67 6.42 1.34 2 1 C1.67 1.99 1.34 2.98 1 4 C0.67 2.68 0.34 1.36 0 0 Z " fill="#464646" transform="translate(515,117)"/>
<path d="M0 0 C1 3 1 3 1 5 C3.31 5 5.62 5 8 5 C7.67 5.66 7.34 6.32 7 7 C9.31 7.33 11.62 7.66 14 8 C14.33 7.34 14.66 6.68 15 6 C15 6.99 15 7.98 15 9 C8.73 9 2.46 9 -4 9 C-4.33 7.35 -4.66 5.7 -5 4 C-3.35 2.68 -1.7 1.36 0 0 Z " fill="#4E4E4E" transform="translate(426,154)"/>
<path d="M0 0 C0.99 0 1.98 0 3 0 C3.19622241 4.21878192 2.80230168 7.17010894 1 11 C2.65 11.33 4.3 11.66 6 12 C6 12.33 6 12.66 6 13 C2.7 13 -0.6 13 -4 13 C-3.71812064 11.20676747 -3.4241719 9.41542874 -3.125 7.625 C-2.96257813 6.62726563 -2.80015625 5.62953125 -2.6328125 4.6015625 C-2 2 -2 2 0 0 Z " fill="#262626" transform="translate(519,143)"/>
<path d="M0 0 C0.33 0.66 0.66 1.32 1 2 C1.66 2.33 2.32 2.66 3 3 C2.38125 3.061875 1.7625 3.12375 1.125 3.1875 C-1.19399088 3.81390012 -1.19399088 3.81390012 -2.1875 6.125 C-3.77980724 11.75931792 -4.1191007 17.16406571 -4 23 C-4.99 22.34 -5.98 21.68 -7 21 C-6.814375 20.505 -6.62875 20.01 -6.4375 19.5 C-5.81987712 16.7732146 -5.81987712 16.7732146 -6.625 13.125 C-7.22655934 8.92970956 -6.4071457 6.56921604 -4 3 C-1.8125 1.125 -1.8125 1.125 0 0 Z " fill="#848484" transform="translate(80,96)"/>
<path d="M0 0 C2.2109885 0.42793326 3.98119242 0.99059621 6 2 C6 2.99 6 3.98 6 5 C7.32 5 8.64 5 10 5 C10 6.32 10 7.64 10 9 C9.01 9 8.02 9 7 9 C7 8.34 7 7.68 7 7 C3.98968256 6.06576355 3.13349732 5.95550089 0 7 C0 8.32 0 9.64 0 11 C-0.66 11 -1.32 11 -2 11 C-1.85957123 9.35369672 -1.71250671 7.70795821 -1.5625 6.0625 C-1.48128906 5.14597656 -1.40007812 4.22945312 -1.31640625 3.28515625 C-1 1 -1 1 0 0 Z " fill="#646062" transform="translate(93,169)"/>
<path d="M0 0 C0.66 0.33 1.32 0.66 2 1 C1.01 4.3 0.02 7.6 -1 11 C-1.66 10.34 -2.32 9.68 -3 9 C-3.2165625 10.60875 -3.2165625 10.60875 -3.4375 12.25 C-3.83749442 14.91662949 -4.27591924 17.41399729 -5 20 C-6.77714844 18.22285156 -6.21450494 15.71729002 -6.25 13.3125 C-6.20978458 8.48664929 -5.93004358 5.0152449 -3 1 C-2.01 0.67 -1.02 0.34 0 0 Z " fill="#222121" transform="translate(557,135)"/>
<path d="M0 0 C0 0.66 0 1.32 0 2 C0.66 2.33 1.32 2.66 2 3 C1.21625 3.2475 0.4325 3.495 -0.375 3.75 C-3.46529048 5.2215669 -3.7909635 5.891049 -5 9 C-5.45064632 11.58532701 -5.45064632 11.58532701 -5.625 14.25 C-5.69976563 15.14203125 -5.77453125 16.0340625 -5.8515625 16.953125 C-5.90054687 17.62859375 -5.94953125 18.3040625 -6 19 C-6.33 18.34 -6.66 17.68 -7 17 C-7.66 17 -8.32 17 -9 17 C-9.44051769 10.83275229 -8.78605971 6.07762523 -5 1 C-2 0 -2 0 0 0 Z " fill="#505050" transform="translate(33,121)"/>
<path d="M0 0 C1.45792884 -0.05399736 2.91642712 -0.09279177 4.375 -0.125 C5.18710937 -0.14820312 5.99921875 -0.17140625 6.8359375 -0.1953125 C9 0 9 0 11 2 C11 2.99 11 3.98 11 5 C9.34211215 6.34423339 7.67423683 7.67618483 6 9 C4.21037181 11.61857695 4.21037181 11.61857695 3 14 C2.34 13.67 1.68 13.34 1 13 C1 12.67 1 12.34 1 12 C0.34 11.67 -0.32 11.34 -1 11 C1.64 8.03 4.28 5.06 7 2 C4.69 1.67 2.38 1.34 0 1 C0 0.67 0 0.34 0 0 Z " fill="#606060" transform="translate(622,118)"/>
<path d="M0 0 C1.32 0.33 2.64 0.66 4 1 C4 1.66 4 2.32 4 3 C9.28 3 14.56 3 20 3 C19.01 3.495 19.01 3.495 18 4 C18 4.66 18 5.32 18 6 C11.70333298 7.18508699 7.60116679 7.31497626 2 4 C0.5625 1.8125 0.5625 1.8125 0 0 Z " fill="#383838" transform="translate(546,157)"/>
<path d="M0 0 C2.5448634 0.36355191 4.05348193 1.03667332 6.1875 2.5 C8.80130328 6.1052459 8.81362339 9.63878734 9 14 C8.34 14 7.68 14 7 14 C6.67 12.68 6.34 11.36 6 10 C5.01 10.33 4.02 10.66 3 11 C2.87882813 10.43410156 2.75765625 9.86820313 2.6328125 9.28515625 C2.38144531 8.18494141 2.38144531 8.18494141 2.125 7.0625 C1.96257813 6.33160156 1.80015625 5.60070312 1.6328125 4.84765625 C1.17038477 2.79299706 1.17038477 2.79299706 -1 2 C-0.67 1.34 -0.34 0.68 0 0 Z " fill="#403E40" transform="translate(532,146)"/>
<path d="M0 0 C5.61 0 11.22 0 17 0 C17.33 1.65 17.66 3.3 18 5 C16.1875 7.125 16.1875 7.125 14 9 C13.01 10.485 13.01 10.485 12 12 C12 11.01 12 10.02 12 9 C11.34 9 10.68 9 10 9 C9.67 9.66 9.34 10.32 9 11 C9.53164548 6.21519067 10.23111619 5.76888381 14 2 C9.38 2 4.76 2 0 2 C0 1.34 0 0.68 0 0 Z " fill="#343434" transform="translate(231,117)"/>
<path d="M0 0 C0.33 0 0.66 0 1 0 C1.3125 2.125 1.3125 2.125 1 5 C-1.16422406 7.9046165 -3.44273523 10.44273523 -6 13 C-6 11.68 -6 10.36 -6 9 C-6.33 9.99 -6.66 10.98 -7 12 C-9.0625 12.6875 -9.0625 12.6875 -11 13 C-11.33 12.01 -11.66 11.02 -12 10 C-12 11.65 -12 13.3 -12 15 C-12.33 15 -12.66 15 -13 15 C-13 13.02 -13 11.04 -13 9 C-11.68 8.67 -10.36 8.34 -9 8 C-9 7.01 -9 6.02 -9 5 C-7.35 5.33 -5.7 5.66 -4 6 C-4 5.34 -4 4.68 -4 4 C-2.68 4 -1.36 4 0 4 C0 2.68 0 1.36 0 0 Z " fill="#706C6D" transform="translate(109,151)"/>
<path d="M0 0 C1.28497537 3.85492611 0.4052209 5.40346836 -0.9375 9.1875 C-1.31777344 10.27417969 -1.69804687 11.36085937 -2.08984375 12.48046875 C-2.39019531 13.31191406 -2.69054687 14.14335937 -3 15 C-3.99 15 -4.98 15 -6 15 C-7.31712811 11.37789769 -6.68301982 9.32755223 -5.25 5.8125 C-4.90453125 4.93207031 -4.5590625 4.05164063 -4.203125 3.14453125 C-3 1 -3 1 0 0 Z " fill="#282828" transform="translate(343,139)"/>
<path d="M0 0 C0.33 0 0.66 0 1 0 C1.05790353 3.29159316 1.09356261 6.58305603 1.125 9.875 C1.14175781 10.81214844 1.15851563 11.74929687 1.17578125 12.71484375 C1.18222656 13.61074219 1.18867187 14.50664062 1.1953125 15.4296875 C1.20578613 16.25710449 1.21625977 17.08452148 1.22705078 17.93701172 C1 20 1 20 -1 22 C-1 21.34 -1 20.68 -1 20 C-1.66 20 -2.32 20 -3 20 C-2.91621094 19.21496094 -2.83242188 18.42992187 -2.74609375 17.62109375 C-2.18706461 11.85389441 -1.83646973 6.68837021 -3 1 C-2.01 1.495 -2.01 1.495 -1 2 C-0.67 1.34 -0.34 0.68 0 0 Z M-1 6 C0 8 0 8 0 8 Z " fill="#747474" transform="translate(65,120)"/>
<path d="M0 0 C5.28 0 10.56 0 16 0 C16 0.66 16 1.32 16 2 C16.99 2.66 17.98 3.32 19 4 C15.04 4 11.08 4 7 4 C7 3.34 7 2.68 7 2 C4.36 2 1.72 2 -1 2 C-0.67 1.34 -0.34 0.68 0 0 Z " fill="#171717" transform="translate(139,159)"/>
<path d="M0 0 C1.08667969 0.29197266 1.08667969 0.29197266 2.1953125 0.58984375 C2.74960938 0.74582031 3.30390625 0.90179688 3.875 1.0625 C3.875 1.7225 3.875 2.3825 3.875 3.0625 C5.33333358 4.68764468 5.33333358 4.68764468 6.875 6.0625 C2.42219212 6.23711992 -1.21094062 6.36488787 -5.125 4.0625 C-5.9375 1.9375 -5.9375 1.9375 -6.125 0.0625 C-3.57797384 -1.21101308 -2.6967055 -0.73941925 0 0 Z " fill="#272727" transform="translate(156.125,138.9375)"/>
<path d="M0 0 C0.99 0 1.98 0 3 0 C3 2.125 3 2.125 2 5 C-1.31099651 8.10313126 -4.68632331 10.56210777 -9 12 C-8.8125 9.6875 -8.8125 9.6875 -8 7 C-5.625 5.4375 -5.625 5.4375 -3 4 C-2.46375 3.278125 -1.9275 2.55625 -1.375 1.8125 C-0.92125 1.214375 -0.4675 0.61625 0 0 Z " fill="#6A6667" transform="translate(108,126)"/>
<path d="M0 0 C4.95 0 9.9 0 15 0 C15.66 1.32 16.32 2.64 17 4 C17.66 4.33 18.32 4.66 19 5 C18.67 5.66 18.34 6.32 18 7 C16.824375 6.9690625 16.824375 6.9690625 15.625 6.9375 C13.01885039 6.81315937 13.01885039 6.81315937 11 8 C10.375 6.125 10.375 6.125 10 4 C10.66 3.34 11.32 2.68 12 2 C8.04 2 4.08 2 0 2 C0 1.34 0 0.68 0 0 Z " fill="#4E4E4E" transform="translate(254,117)"/>
<path d="M0 0 C0.66 0 1.32 0 2 0 C2 2.64 2 5.28 2 8 C0.35 8 -1.3 8 -3 8 C-3 11.63 -3 15.26 -3 19 C-3.66 19.33 -4.32 19.66 -5 20 C-5 15.71 -5 11.42 -5 7 C-3.35 6.67 -1.7 6.34 0 6 C0 4.02 0 2.04 0 0 Z " fill="#050505" transform="translate(390,134)"/>
<path d="M0 0 C0.33 0.66 0.66 1.32 1 2 C1.99 1.67 2.98 1.34 4 1 C3.54803755 2.60597325 3.08817673 4.20972508 2.625 5.8125 C2.36976563 6.70582031 2.11453125 7.59914062 1.8515625 8.51953125 C1 11 1 11 -1 14 C-1.66 13.34 -2.32 12.68 -3 12 C-2.67176873 7.65093573 -1.80260764 3.9657368 0 0 Z " fill="#2E2E2E" transform="translate(345,125)"/>
<path d="M0 0 C5.61 0 11.22 0 17 0 C17.33 1.32 17.66 2.64 18 4 C16.35 5.32 14.7 6.64 13 8 C13 7.01 13 6.02 13 5 C12.34 4.67 11.68 4.34 11 4 C11.66 3.34 12.32 2.68 13 2 C9.37 1.67 5.74 1.34 2 1 C1.67 1.99 1.34 2.98 1 4 C0.67 2.68 0.34 1.36 0 0 Z " fill="#3E3E3E" transform="translate(336,117)"/>
<path d="M0 0 C0.33 0 0.66 0 1 0 C1 1.98 1 3.96 1 6 C1.99 6.33 2.98 6.66 4 7 C2.68 8.65 1.36 10.3 0 12 C-2.4375 10.8125 -2.4375 10.8125 -5 9 C-5.8125 6.3125 -5.8125 6.3125 -6 4 C-4.68 4 -3.36 4 -2 4 C-1.67 4.99 -1.34 5.98 -1 7 C-0.67 4.69 -0.34 2.38 0 0 Z " fill="#737075" transform="translate(86,178)"/>
<path d="M0 0 C1.55577239 5.65735415 0.24281523 8.79666866 -2 14 C-3 11 -3 11 -2 8 C-3.32 7.34 -4.64 6.68 -6 6 C-3.84615385 0 -3.84615385 0 0 0 Z " fill="#474747" transform="translate(311,137)"/>
<path d="M0 0 C0.33 0 0.66 0 1 0 C1.57934159 5.40718817 1.34220083 8.10649656 -2 12.5 C-2.98191175 13.68193081 -3.97612198 14.85423174 -5 16 C-6.15957207 12.52128379 -5.77456651 11.65780355 -4.5625 8.3125 C-4.27503906 7.50425781 -3.98757813 6.69601563 -3.69140625 5.86328125 C-3.46324219 5.24839844 -3.23507812 4.63351563 -3 4 C-2.34 4 -1.68 4 -1 4 C-0.67 2.68 -0.34 1.36 0 0 Z " fill="#363636" transform="translate(502,142)"/>
<path d="M0 0 C1.35439668 2.70879335 1.06501451 5.00933268 1 8 C2.32 8 3.64 8 5 8 C5.33 9.98 5.66 11.96 6 14 C4.35 14 2.7 14 1 14 C1 13.01 1 12.02 1 11 C0.34 11 -0.32 11 -1 11 C-1.33 8.69 -1.66 6.38 -2 4 C-2.99 4.495 -2.99 4.495 -4 5 C-4 3.68 -4 2.36 -4 1 C-2.68 0.67 -1.36 0.34 0 0 Z " fill="#3B3B3B" transform="translate(194,149)"/>
<path d="M0 0 C5.94 0 11.88 0 18 0 C18.33 1.32 18.66 2.64 19 4 C17.02 5.32 15.04 6.64 13 8 C12.957279 6.33388095 12.95936168 4.66617115 13 3 C13.33 2.67 13.66 2.34 14 2 C10.04 1.67 6.08 1.34 2 1 C1.67 1.66 1.34 2.32 1 3 C0.67 2.01 0.34 1.02 0 0 Z " fill="#4A4A4A" transform="translate(210,117)"/>
<path d="M0 0 C0.66 0.99 1.32 1.98 2 3 C0.95315237 7.97252626 -1.96434679 10.25575582 -6 13 C-8.375 12.8125 -8.375 12.8125 -10 12 C-9.195625 11.21625 -8.39125 10.4325 -7.5625 9.625 C-5.01309583 7.28017144 -5.01309583 7.28017144 -4 5 C-3.01 5 -2.02 5 -1 5 C-0.67 3.35 -0.34 1.7 0 0 Z " fill="#272727" transform="translate(299,147)"/>
<path d="M0 0 C1.00335818 3.12155879 0.80670923 4.87400172 0 8 C0.33 8.99 0.66 9.98 1 11 C0.83988879 13.70123106 0.39559392 16.31875231 0 19 C-0.33 19 -0.66 19 -1 19 C-1.33 17.02 -1.66 15.04 -2 13 C-2.99 13.99 -3.98 14.98 -5 16 C-3.90301833 10.30860098 -2.45946923 5.25432063 0 0 Z M-2 9 C-1 11 -1 11 -1 11 Z " fill="#353535" transform="translate(215,139)"/>
<path d="M0 0 C0.66 0.33 1.32 0.66 2 1 C1.67 1.66 1.34 2.32 1 3 C-0.625 3.5 -0.625 3.5 -3 4 C-5.3347961 4.66152556 -7.66836622 5.32741333 -10 6 C-10.33 4.68 -10.66 3.36 -11 2 C-6.94641576 -0.70238949 -4.81689896 -0.22937614 0 0 Z " fill="#2D2D2D" transform="translate(573,121)"/>
<path d="M0 0 C1.65 0.33 3.3 0.66 5 1 C5.36567164 7.460199 5.36567164 7.460199 3.6875 9.9375 C2 11 2 11 -1 11 C-0.9278125 10.37351563 -0.855625 9.74703125 -0.78125 9.1015625 C-0.6884375 8.28429687 -0.595625 7.46703125 -0.5 6.625 C-0.4071875 5.81289062 -0.314375 5.00078125 -0.21875 4.1640625 C0.03352351 2.03087175 0.03352351 2.03087175 0 0 Z " fill="#353535" transform="translate(503,121)"/>
<path d="M0 0 C0.99 0 1.98 0 3 0 C3 1.32 3 2.64 3 4 C0.5622037 4.05397335 -1.87439685 4.09365616 -4.3125 4.125 C-5.34793945 4.15013672 -5.34793945 4.15013672 -6.40429688 4.17578125 C-10.17135396 4.21217794 -11.78431704 4.14378864 -15 2 C-10.05 2 -5.1 2 0 2 C0 1.34 0 0.68 0 0 Z " fill="#2D2D2D" transform="translate(338,159)"/>
<path d="M0 0 C0.66 0.33 1.32 0.66 2 1 C1.67 1.33 1.34 1.66 1 2 C4.63 2.33 8.26 2.66 12 3 C12 3.66 12 4.32 12 5 C9.70839681 5.02692484 7.41670454 5.04636124 5.125 5.0625 C3.84882813 5.07410156 2.57265625 5.08570313 1.2578125 5.09765625 C-2 5 -2 5 -4 4 C-4 3.34 -4 2.68 -4 2 C-2.125 0.9375 -2.125 0.9375 0 0 Z " fill="#3F3F3F" transform="translate(394,156)"/>
<path d="M0 0 C5.94 0 11.88 0 18 0 C18 1.32 18 2.64 18 4 C16.125 5.0625 16.125 5.0625 14 6 C13.34 5.67 12.68 5.34 12 5 C12.33 4.01 12.66 3.02 13 2 C8.71 1.67 4.42 1.34 0 1 C0 0.67 0 0.34 0 0 Z " fill="#3B3B3B" transform="translate(372,117)"/>
<path d="M0 0 C0.33 1.32 0.66 2.64 1 4 C1.66 4 2.32 4 3 4 C2.6875 6.375 2.6875 6.375 2 9 C-1.42094242 11.28062828 -2.68187222 11.21925007 -6.6875 11.125 C-8.17830078 11.09792969 -8.17830078 11.09792969 -9.69921875 11.0703125 C-10.45847656 11.04710937 -11.21773437 11.02390625 -12 11 C-12 10.67 -12 10.34 -12 10 C-8.7 9.67 -5.4 9.34 -2 9 C-1.34 6.03 -0.68 3.06 0 0 Z " fill="#908F90" transform="translate(50,163)"/>
<path d="M0 0 C0.5534764 2.07553648 1 3.84365964 1 6 C1.33 6.99 1.66 7.98 2 9 C1.44140625 11.04296875 1.44140625 11.04296875 0.5625 13.1875 C0.27503906 13.90292969 -0.01242188 14.61835938 -0.30859375 15.35546875 C-0.53675781 15.89816406 -0.76492187 16.44085938 -1 17 C-1.33 15.68 -1.66 14.36 -2 13 C-2.99 13.495 -2.99 13.495 -4 14 C-3.71572583 12.41532272 -3.42225182 10.8322943 -3.125 9.25 C-2.96257812 8.36828125 -2.80015625 7.4865625 -2.6328125 6.578125 C-2.03203736 4.13052256 -1.22002883 2.19400143 0 0 Z " fill="#363636" transform="translate(220,124)"/>
<path d="M0 0 C0.66 0 1.32 0 2 0 C0.26 9.86 0.26 9.86 -3.625 13.375 C-4.40875 13.91125 -5.1925 14.4475 -6 15 C-6.66 14.67 -7.32 14.34 -8 14 C-7.59007812 13.39671875 -7.18015625 12.7934375 -6.7578125 12.171875 C-6.21898437 11.37265625 -5.68015625 10.5734375 -5.125 9.75 C-4.59132813 8.96109375 -4.05765625 8.1721875 -3.5078125 7.359375 C-1.07820374 3.93002743 -1.07820374 3.93002743 0 0 Z " fill="#515051" transform="translate(435,120)"/>
<path d="M0 0 C0.66 0.99 1.32 1.98 2 3 C1.67 3.33 1.34 3.66 1 4 C6.28 4.33 11.56 4.66 17 5 C17.33 3.68 17.66 2.36 18 1 C18 2.65 18 4.3 18 6 C11.73 6 5.46 6 -1 6 C-1.33 4.35 -1.66 2.7 -2 1 C-1.34 0.67 -0.68 0.34 0 0 Z " fill="#686868" transform="translate(344,157)"/>
<path d="M0 0 C0.99 0 1.98 0 3 0 C3 4 3 4 1.3125 5.8125 C-1.57949326 7.29757762 -2.95205066 6.93131785 -6 6 C-6 5.01 -6 4.02 -6 3 C-5.34 3.33 -4.68 3.66 -4 4 C-4 3.34 -4 2.68 -4 2 C-2.68 2 -1.36 2 0 2 C0 1.34 0 0.68 0 0 Z " fill="#151011" transform="translate(106,151)"/>
<path d="M0 0 C-0.33 1.32 -0.66 2.64 -1 4 C-3.64 4 -6.28 4 -9 4 C-9.33 3.01 -9.66 2.02 -10 1 C-6.78548731 -0.60725635 -3.56387464 -0.05748185 0 0 Z " fill="#656364" transform="translate(92,94)"/>
<path d="M0 0 C-0.50214995 4.39381209 -1.92213689 6.83419795 -5 10 C-7.25 10.8125 -7.25 10.8125 -9 11 C-9 8 -9 8 -6.5 5.4375 C-5.675 4.633125 -4.85 3.82875 -4 3 C-4 2.34 -4 1.68 -4 1 C-2 0 -2 0 0 0 Z " fill="#292929" transform="translate(178,148)"/>
<path d="M0 0 C0.66 0.33 1.32 0.66 2 1 C1.21658881 2.98244892 0.42302514 4.96088859 -0.375 6.9375 C-0.81585938 8.03964844 -1.25671875 9.14179688 -1.7109375 10.27734375 C-3 13 -3 13 -5 14 C-4.34 9.71 -3.68 5.42 -3 1 C-1 2 -1 2 0 3 C0 2.01 0 1.02 0 0 Z " fill="#2C2C2C" transform="translate(257,143)"/>
<path d="M0 0 C3.80125093 -0.29240392 6.22579591 -0.45319264 9.5625 1.5 C11.25397157 4.44168968 11.03321351 5.07206893 10.25 8.25 C9.8375 9.4875 9.425 10.725 9 12 C8.34 11.67 7.68 11.34 7 11 C7 8.36 7 5.72 7 3 C4.69 2.67 2.38 2.34 0 2 C0 1.34 0 0.68 0 0 Z " fill="#444444" transform="translate(285,120)"/>
<path d="M0 0 C0.33 0.99 0.66 1.98 1 3 C-1.64 4.98 -4.28 6.96 -7 9 C-7.66 8.67 -8.32 8.34 -9 8 C-7.70948419 4.12845257 -4.40863591 0 0 0 Z " fill="#7E7B7E" transform="translate(59,147)"/>
<path d="M0 0 C1.32 0 2.64 0 4 0 C3.66410006 3.13506611 2.97334828 4.025249 0.625 6.25 C-2 8 -2 8 -5 8 C-4 6 -3 4 -2 2 C-1.34 2 -0.68 2 0 2 C0 1.34 0 0.68 0 0 Z " fill="#2E2E2E" transform="translate(577,147)"/>
<path d="M0 0 C1 3 1 3 0.00390625 5.04296875 C-0.47175781 5.75066406 -0.94742188 6.45835937 -1.4375 7.1875 C-1.91058594 7.90292969 -2.38367188 8.61835938 -2.87109375 9.35546875 C-3.24363281 9.89816406 -3.61617187 10.44085938 -4 11 C-4.33 10.01 -4.66 9.02 -5 8 C-5.33 8.33 -5.66 8.66 -6 9 C-7 6 -7 6 -6.25 3.9375 C-4.6169461 1.40626646 -3.11229879 0 0 0 Z " fill="#363636" transform="translate(627,136)"/>
<path d="M0 0 C0.763125 0.0825 1.52625 0.165 2.3125 0.25 C1.3125 2.25 1.3125 2.25 -0.75 4.1875 C-3.02983773 6.14278939 -3.02983773 6.14278939 -2.6875 9.25 C-3.0175 10.24 -3.3475 11.23 -3.6875 12.25 C-5.85925481 8.99236778 -6.14793998 8.02560787 -5.6875 4.25 C-4.100265 1.15906868 -3.51887931 0.32733761 0 0 Z " fill="#2E2E2E" transform="translate(372.6875,131.75)"/>
<path d="M0 0 C2.3203125 0.1953125 2.3203125 0.1953125 5 1 C6.6171875 3.1796875 6.6171875 3.1796875 7.875 5.875 C8.30554688 6.75929688 8.73609375 7.64359375 9.1796875 8.5546875 C10 11 10 11 9 14 C6.41907669 11.75571886 5.79059742 10.26121435 5 7 C4.01268258 5.65724831 3.01405257 4.32267727 2 3 C2 2.34 2 1.68 2 1 C1.34 0.67 0.68 0.34 0 0 Z " fill="#575657" transform="translate(104,95)"/>
<path d="M0 0 C7.53955136 0.48642267 7.53955136 0.48642267 9.625 2.8125 C10.09453575 5.55145857 9.47884998 6.6995667 8 9 C6 5.25 6 5.25 6 3 C3.69 3 1.38 3 -1 3 C-0.67 2.01 -0.34 1.02 0 0 Z " fill="#303030" transform="translate(487,122)"/>
<path d="M0 0 C0.33 0.66 0.66 1.32 1 2 C1.66 2 2.32 2 3 2 C2.60196439 4.88575819 2.20990931 5.82189513 -0.0625 7.75 C-1.0215625 8.36875 -1.0215625 8.36875 -2 9 C-2 8.34 -2 7.68 -2 7 C-3.65 7.33 -5.3 7.66 -7 8 C-6.21625 7.4225 -5.4325 6.845 -4.625 6.25 C-2.19952756 4.17102363 -1.14305583 2.90959667 0 0 Z " fill="#282828" transform="translate(301,129)"/>
<path d="M0 0 C0.33 0 0.66 0 1 0 C1.40368295 6.45892714 0.5915262 11.06108578 -2 17 C-2.99 16.34 -3.98 15.68 -5 15 C-4.39816251 12.97954558 -3.72693904 10.97888961 -3 9 C-2.34 8.67 -1.68 8.34 -1 8 C-0.53476937 6.10466658 -0.53476937 6.10466658 -0.375 3.9375 C-0.25125 2.638125 -0.1275 1.33875 0 0 Z " fill="#706E6F" transform="translate(114,109)"/>
<path d="M0 0 C0.33 0 0.66 0 1 0 C1.06058594 0.60328125 1.12117188 1.2065625 1.18359375 1.828125 C1.26738281 2.62734375 1.35117188 3.4265625 1.4375 4.25 C1.55931641 5.43335938 1.55931641 5.43335938 1.68359375 6.640625 C1.93490397 8.99537346 1.93490397 8.99537346 2.66015625 11.171875 C2.77230469 11.77515625 2.88445312 12.3784375 3 13 C2.34 13.66 1.68 14.32 1 15 C-1.5654594 12.4345406 -1.54046087 10.52313332 -2 7 C-1.34 7 -0.68 7 0 7 C0 4.69 0 2.38 0 0 Z " fill="#6F6C6D" transform="translate(63,161)"/>
<path d="M0 0 C0.33 1.32 0.66 2.64 1 4 C-4.61 4 -10.22 4 -16 4 C-16 3.67 -16 3.34 -16 3 C-15.34773438 2.95101562 -14.69546875 2.90203125 -14.0234375 2.8515625 C-9.06720147 2.42757771 -4.66980549 1.84334427 0 0 Z " fill="#131313" transform="translate(439,158)"/>
<path d="M0 0 C2.0625 0.4375 2.0625 0.4375 4 1 C4 5 4 5 2.625 6.75 C1 8 1 8 -1 8 C-1.04241723 5.66705225 -1.04092937 3.33297433 -1 1 C-0.67 0.67 -0.34 0.34 0 0 Z " fill="#585556" transform="translate(102,139)"/>
<path d="M0 0 C1.98 0.495 1.98 0.495 4 1 C4.33 2.32 4.66 3.64 5 5 C3.35 6.32 1.7 7.64 0 9 C-0.625 6.625 -0.625 6.625 -1 4 C-0.34 3.34 0.32 2.68 1 2 C0.67 1.34 0.34 0.68 0 0 Z " fill="#414141" transform="translate(181,117)"/>
<path d="M0 0 C1.32 0 2.64 0 4 0 C4 0.66 4 1.32 4 2 C6.64 2.33 9.28 2.66 12 3 C11.67 3.99 11.34 4.98 11 6 C5.64951939 5.62671065 3.49087093 4.0042343 0 0 Z " fill="#747474" transform="translate(24,151)"/>
<path d="M0 0 C0 0.66 0 1.32 0 2 C0.66 2.33 1.32 2.66 2 3 C1.236875 3.2475 0.47375 3.495 -0.3125 3.75 C-3.2364045 5.10995558 -4.30004356 6.31585826 -6 9 C-6.88492145 6.52221994 -7.11637742 5.33943414 -6.25 2.8125 C-4.55565991 0.35570688 -2.92824566 0 0 0 Z " fill="#616161" transform="translate(33,121)"/>
<path d="M0 0 C0.99 0 1.98 0 3 0 C3 0.66 3 1.32 3 2 C3.598125 2.268125 4.19625 2.53625 4.8125 2.8125 C6.97224808 3.98493467 8.35790256 5.19369282 10 7 C9.34 7 8.68 7 8 7 C7.67 7.66 7.34 8.32 7 9 C5.83037314 7.69013727 4.66437056 6.3770374 3.5 5.0625 C2.8503125 4.33160156 2.200625 3.60070312 1.53125 2.84765625 C0 1 0 1 0 0 Z " fill="#555555" transform="translate(46,101)"/>
<path d="M0 0 C0.99 0.33 1.98 0.66 3 1 C3 1.66 3 2.32 3 3 C9.93 3.495 9.93 3.495 17 4 C17 4.33 17 4.66 17 5 C14.89651926 5.19504458 12.79217415 5.38078496 10.6875 5.5625 C9.51574219 5.66691406 8.34398437 5.77132812 7.13671875 5.87890625 C4 6 4 6 1 5 C0.67 3.35 0.34 1.7 0 0 Z " fill="#696969" transform="translate(301,158)"/>
<path d="M0 0 C1.45742463 -0.08096803 2.91612807 -0.13917774 4.375 -0.1875 C5.18710938 -0.22230469 5.99921875 -0.25710937 6.8359375 -0.29296875 C7.55007812 -0.19628906 8.26421875 -0.09960938 9 0 C9.66 0.99 10.32 1.98 11 3 C8.11788698 3.96070434 6.30149956 4.10581883 3.3125 4.0625 C2.10013672 4.04896484 2.10013672 4.04896484 0.86328125 4.03515625 C-0.05904297 4.01775391 -0.05904297 4.01775391 -1 4 C0.32 3.34 1.64 2.68 3 2 C2.01 1.34 1.02 0.68 0 0 Z " fill="#4D4D4D" transform="translate(152,160)"/>
<path d="M0 0 C-0.99 0.495 -0.99 0.495 -2 1 C-2 1.66 -2 2.32 -2 3 C-6.455 3.495 -6.455 3.495 -11 4 C-11 3.01 -11 2.02 -11 1 C-7.27569643 0.30710631 -3.78916254 -0.11144596 0 0 Z " fill="#323232" transform="translate(566,160)"/>
<path d="M0 0 C1.98 0.495 1.98 0.495 4 1 C5.23076923 6.41538462 5.23076923 6.41538462 4.0625 9.375 C3.711875 9.91125 3.36125 10.4475 3 11 C2.87882813 10.43410156 2.75765625 9.86820313 2.6328125 9.28515625 C2.38144531 8.18494141 2.38144531 8.18494141 2.125 7.0625 C1.96257813 6.33160156 1.80015625 5.60070312 1.6328125 4.84765625 C1.17038477 2.79299706 1.17038477 2.79299706 -1 2 C-0.67 1.34 -0.34 0.68 0 0 Z " fill="#525051" transform="translate(532,146)"/>
<path d="M0 0 C1.03743192 3.11229577 1.01105951 3.95576196 0.25 7 C0.01023438 8.0209375 0.01023438 8.0209375 -0.234375 9.0625 C-1 11 -1 11 -4 14 C-3.67 10.7 -3.34 7.4 -3 4 C-2.34 4 -1.68 4 -1 4 C-0.67 2.68 -0.34 1.36 0 0 Z " fill="#0C0C0C" transform="translate(218,134)"/>
<path d="M0 0 C1.21236328 0.01353516 1.21236328 0.01353516 2.44921875 0.02734375 C3.37154297 0.04474609 3.37154297 0.04474609 4.3125 0.0625 C2.40848862 1.96651138 0.97824314 2.99770439 -1.734375 3.26171875 C-3.71983273 3.2511578 -5.7044914 3.16165043 -7.6875 3.0625 C-7.6875 2.4025 -7.6875 1.7425 -7.6875 1.0625 C-4.80538698 0.10179566 -2.98899956 -0.04331883 0 0 Z " fill="#3E3C3D" transform="translate(74.6875,178.9375)"/>
<path d="M0 0 C0.33 0 0.66 0 1 0 C2.46842878 6.24082232 2.46842878 6.24082232 0.1875 9.9375 C-2 12 -2 12 -4 12 C-3.67 10.68 -3.34 9.36 -3 8 C-2.01 8 -1.02 8 0 8 C0 7.34 0 6.68 0 6 C-0.66 5.67 -1.32 5.34 -2 5 C-1.34 3.35 -0.68 1.7 0 0 Z " fill="#696667" transform="translate(83,166)"/>
<path d="M0 0 C1.98 0 3.96 0 6 0 C6 1.32 6 2.64 6 4 C4.02 4 2.04 4 0 4 C0 2.68 0 1.36 0 0 Z " fill="#5A5A5A" transform="translate(7,167)"/>
<path d="M0 0 C1.32 0 2.64 0 4 0 C5.75 2 5.75 2 7 4 C6.360625 4.12375 5.72125 4.2475 5.0625 4.375 C4.0415625 4.684375 4.0415625 4.684375 3 5 C2.67 5.66 2.34 6.32 2 7 C0.5393715 4.35261084 0 3.10551666 0 0 Z " fill="#383636" transform="translate(97,166)"/>
<path d="M0 0 C0.33 0.66 0.66 1.32 1 2 C1.66 2 2.32 2 3 2 C2.67 2.99 2.34 3.98 2 5 C0.02 5 -1.96 5 -4 5 C-4 3.68 -4 2.36 -4 1 C-2.68 0.67 -1.36 0.34 0 0 Z " fill="#474747" transform="translate(415,158)"/>
<path d="M0 0 C0.99 0 1.98 0 3 0 C3.125 2.875 3.125 2.875 3 6 C2.34 6.66 1.68 7.32 1 8 C1 7.01 1 6.02 1 5 C0.01 5 -0.98 5 -2 5 C-1.125 1.125 -1.125 1.125 0 0 Z " fill="#363636" transform="translate(519,143)"/>
<path d="M0 0 C2.97 0.495 2.97 0.495 6 1 C5.67 3.97 5.34 6.94 5 10 C4.67 10 4.34 10 4 10 C4 8.35 4 6.7 4 5 C1.03 4.505 1.03 4.505 -2 4 C-1.01 3.34 -0.02 2.68 1 2 C0.67 1.34 0.34 0.68 0 0 Z " fill="#474747" transform="translate(485,140)"/>
<path d="M0 0 C0.66 0.99 1.32 1.98 2 3 C0.02 5.97 0.02 5.97 -2 9 C-4 8 -4 8 -5 5 C-3.68 4.67 -2.36 4.34 -1 4 C-0.67 2.68 -0.34 1.36 0 0 Z " fill="#817E82" transform="translate(47,136)"/>
<path d="M0 0 C0.66 0.33 1.32 0.66 2 1 C2.125 8.75 2.125 8.75 1 11 C0.34 11 -0.32 11 -1 11 C-1.02688151 9.35425434 -1.04634123 7.70838587 -1.0625 6.0625 C-1.07410156 5.14597656 -1.08570313 4.22945313 -1.09765625 3.28515625 C-1 1 -1 1 0 0 Z " fill="#060606" transform="translate(385,121)"/>
<path d="M0 0 C0.99 0.33 1.98 0.66 3 1 C0.75 3.5625 0.75 3.5625 -2 6 C-4.3125 5.8125 -4.3125 5.8125 -6 5 C-6 4.34 -6 3.68 -6 3 C-5.195625 2.690625 -4.39125 2.38125 -3.5625 2.0625 C-1.10919595 1.23664655 -1.10919595 1.23664655 0 0 Z " fill="#5E5B5D" transform="translate(90,122)"/>
<path d="M0 0 C2.79872437 2.52788007 4.45773019 4.20411134 5 8 C3.68 8 2.36 8 1 8 C0.01 6.02 -0.98 4.04 -2 2 C-1.34 2 -0.68 2 0 2 C0 1.34 0 0.68 0 0 Z " fill="#676364" transform="translate(59,111)"/>
<path d="M0 0 C-0.33 0.33 -0.66 0.66 -1 1 C-0.34 1.66 0.32 2.32 1 3 C-1.64 3 -4.28 3 -7 3 C-7 2.34 -7 1.68 -7 1 C-7.99 0.67 -8.98 0.34 -10 0 C-2.25 -1.125 -2.25 -1.125 0 0 Z " fill="#919090" transform="translate(97,136)"/>
<path d="M0 0 C0.33 1.32 0.66 2.64 1 4 C1.66 4 2.32 4 3 4 C2.67 5.65 2.34 7.3 2 9 C1.34 8.67 0.68 8.34 0 8 C-0.99 8.99 -1.98 9.98 -3 11 C-2.69078116 9.54096742 -2.37751201 8.08279278 -2.0625 6.625 C-1.88847656 5.81289062 -1.71445313 5.00078125 -1.53515625 4.1640625 C-1 2 -1 2 0 0 Z " fill="#232323" transform="translate(199,125)"/>
<path d="M0 0 C1 3 1 3 0.0625 5.1875 C-0.4634375 6.0846875 -0.4634375 6.0846875 -1 7 C-1.33 6.67 -1.66 6.34 -2 6 C-2.99 7.32 -3.98 8.64 -5 10 C-4.25 3.25 -4.25 3.25 -2 1 C-1.34 0.67 -0.68 0.34 0 0 Z " fill="#222222" transform="translate(484,125)"/>
<path d="M0 0 C0.99 0 1.98 0 3 0 C2.69078116 1.45903258 2.37751201 2.91720722 2.0625 4.375 C1.88847656 5.18710938 1.71445313 5.99921875 1.53515625 6.8359375 C1 9 1 9 0 11 C-0.66 10.67 -1.32 10.34 -2 10 C-1.85950482 8.52031676 -1.71245174 7.04125484 -1.5625 5.5625 C-1.48128906 4.73878906 -1.40007812 3.91507812 -1.31640625 3.06640625 C-1 1 -1 1 0 0 Z " fill="#0A0A0A" transform="translate(221,121)"/>
<path d="M0 0 C2.475 0.99 2.475 0.99 5 2 C4.67 2.99 4.34 3.98 4 5 C1.36 5 -1.28 5 -4 5 C-2.68 4.67 -1.36 4.34 0 4 C0 2.68 0 1.36 0 0 Z " fill="#4A494A" transform="translate(93,181)"/>
<path d="M0 0 C0.33 0 0.66 0 1 0 C0.67 2.97 0.34 5.94 0 9 C-0.99 9.33 -1.98 9.66 -3 10 C-2.25 3.375 -2.25 3.375 0 0 Z " fill="#0A0A0A" transform="translate(445,128)"/>
<path d="M0 0 C0.33 0 0.66 0 1 0 C0.67 2.97 0.34 5.94 0 9 C-0.99 9 -1.98 9 -3 9 C-2.5020163 5.26512223 -2.12508244 3.18762365 0 0 Z " fill="#101010" transform="translate(341,142)"/>
<path d="M0 0 C3.81538462 2.46153846 3.81538462 2.46153846 4.75 5.1875 C4.8325 5.785625 4.915 6.38375 5 7 C3.68 7.33 2.36 7.66 1 8 C0.67 5.36 0.34 2.72 0 0 Z " fill="#151515" transform="translate(583,122)"/>
<path d="M0 0 C0.33 0.66 0.66 1.32 1 2 C2.65 2 4.3 2 6 2 C6 2.33 6 2.66 6 3 C4.329375 3.12375 4.329375 3.12375 2.625 3.25 C-1.05753944 3.57873787 -1.05753944 3.57873787 -2.4375 6.0625 C-2.623125 6.701875 -2.80875 7.34125 -3 8 C-3.66 8 -4.32 8 -5 8 C-5 7.01 -5 6.02 -5 5 C-4.34 5 -3.68 5 -3 5 C-2.87625 4.360625 -2.7525 3.72125 -2.625 3.0625 C-2.41875 2.381875 -2.2125 1.70125 -2 1 C-1.34 0.67 -0.68 0.34 0 0 Z " fill="#444444" transform="translate(609,122)"/>
<path d="M0 0 C0 0.66 0 1.32 0 2 C0.99 2.66 1.98 3.32 3 4 C-1.455 4.495 -1.455 4.495 -6 5 C-5.67 3.68 -5.34 2.36 -5 1 C-3 0 -3 0 0 0 Z " fill="#8C8C8C" transform="translate(18,161)"/>
<path d="M0 0 C-0.33 2.64 -0.66 5.28 -1 8 C-2.32 7.34 -3.64 6.68 -5 6 C-2.84615385 0 -2.84615385 0 0 0 Z " fill="#131313" transform="translate(439,148)"/>
<path d="M0 0 C0.66 0 1.32 0 2 0 C2 0.66 2 1.32 2 2 C3.32 2.33 4.64 2.66 6 3 C5.67 3.99 5.34 4.98 5 6 C3.68 5.67 2.36 5.34 1 5 C0.67 3.35 0.34 1.7 0 0 Z " fill="#6E6C6E" transform="translate(31,139)"/>
<path d="M0 0 C1 2 1 2 0.0625 5.125 C-0.288125 6.07375 -0.63875 7.0225 -1 8 C-0.34 8 0.32 8 1 8 C1 8.99 1 9.98 1 11 C-0.32 10.67 -1.64 10.34 -3 10 C-2.69201674 8.51988629 -2.378482 7.04092675 -2.0625 5.5625 C-1.88847656 4.73878906 -1.71445312 3.91507813 -1.53515625 3.06640625 C-1 1 -1 1 0 0 Z " fill="#1F1F1F" transform="translate(412,127)"/>
<path d="M0 0 C1.485 0.99 1.485 0.99 3 2 C2.67 4.31 2.34 6.62 2 9 C1.01 8.34 0.02 7.68 -1 7 C-0.67 4.69 -0.34 2.38 0 0 Z " fill="#242424" transform="translate(343,130)"/>
<path d="M0 0 C0.33 0.66 0.66 1.32 1 2 C1.66 2.33 2.32 2.66 3 3 C2.360625 3.103125 1.72125 3.20625 1.0625 3.3125 C0.381875 3.539375 -0.29875 3.76625 -1 4 C-1.33 4.99 -1.66 5.98 -2 7 C-2.66 7 -3.32 7 -4 7 C-3.39816251 4.97954558 -2.72693904 2.97888961 -2 1 C-1.34 0.67 -0.68 0.34 0 0 Z " fill="#575455" transform="translate(80,96)"/>
<path d="M0 0 C2.16874252 0.50603992 3.99967627 0.99983813 6 2 C5.67 3.32 5.34 4.64 5 6 C3.2925002 4.71937515 1.62626404 3.38232443 0 2 C0 1.34 0 0.68 0 0 Z " fill="#4C4C4C" transform="translate(20,162)"/>
<path d="M0 0 C0.66 0 1.32 0 2 0 C2 0.99 2 1.98 2 3 C3.65 3 5.3 3 7 3 C7 3.33 7 3.66 7 4 C5.35 4 3.7 4 2 4 C2 5.65 2 7.3 2 9 C1.67 9 1.34 9 1 9 C1 7.35 1 5.7 1 4 C0.34 4 -0.32 4 -1 4 C-0.67 2.68 -0.34 1.36 0 0 Z " fill="#424242" transform="translate(194,140)"/>
<path d="M0 0 C0.66 1.32 1.32 2.64 2 4 C-2.29 3.67 -6.58 3.34 -11 3 C-11 2.67 -11 2.34 -11 2 C-10.28972656 1.93941406 -9.57945312 1.87882813 -8.84765625 1.81640625 C-7.46900391 1.69072266 -7.46900391 1.69072266 -6.0625 1.5625 C-5.14597656 1.48128906 -4.22945313 1.40007812 -3.28515625 1.31640625 C-1.03840268 1.23955024 -1.03840268 1.23955024 0 0 Z " fill="#0E0E0E" transform="translate(319,159)"/>
<path d="M0 0 C2 3.75 2 3.75 2 6 C0.35 6 -1.3 6 -3 6 C-2.625 3.5625 -2.625 3.5625 -2 1 C-1.34 0.67 -0.68 0.34 0 0 Z " fill="#929292" transform="translate(198,157)"/>
<path d="M0 0 C0.99 0.33 1.98 0.66 3 1 C2.67 3.97 2.34 6.94 2 10 C1.67 10 1.34 10 1 10 C1 8.35 1 6.7 1 5 C0.34 5 -0.32 5 -1 5 C-0.67 3.35 -0.34 1.7 0 0 Z " fill="#323232" transform="translate(475,144)"/>
<path d="M0 0 C0.99 0.33 1.98 0.66 3 1 C2.43628586 4.26954202 1.50037734 5.82575883 -1 8 C-0.67 5.36 -0.34 2.72 0 0 Z " fill="#727272" transform="translate(61,141)"/>
<path d="M0 0 C1.32 0 2.64 0 4 0 C3.25 4.75 3.25 4.75 1 7 C0.67 5.68 0.34 4.36 0 3 C-0.33 3.66 -0.66 4.32 -1 5 C-0.67 3.35 -0.34 1.7 0 0 Z " fill="#353535" transform="translate(236,138)"/>
<path d="M0 0 C2.475 0.495 2.475 0.495 5 1 C4.34 3.31 3.68 5.62 3 8 C1.0549 5.08235 0.54723683 3.37462715 0 0 Z " fill="#575757" transform="translate(301,119)"/>
<path d="M0 0 C0.33 0 0.66 0 1 0 C1.29296875 6.0546875 1.29296875 6.0546875 1 8 C0.01 8.66 -0.98 9.32 -2 10 C-2.25 3.375 -2.25 3.375 0 0 Z " fill="#0B0B0B" transform="translate(201,121)"/>
<path d="M0 0 C0.99 0 1.98 0 3 0 C3 0.66 3 1.32 3 2 C3.66 2 4.32 2 5 2 C4.42655063 4.86724686 4.1385485 5.8614515 2 8 C1.06576355 4.98968256 0.95550089 4.13349732 2 1 C1.34 0.67 0.68 0.34 0 0 Z " fill="#6C6A6A" transform="translate(84,106)"/>
<path d="M0 0 C1.9375 0.3125 1.9375 0.3125 4 1 C4.33 1.99 4.66 2.98 5 4 C2.69 4.66 0.38 5.32 -2 6 C-1.67 5.34 -1.34 4.68 -1 4 C-0.34 4 0.32 4 1 4 C0.67 2.68 0.34 1.36 0 0 Z " fill="#3F3B3D" transform="translate(96,175)"/>
<path d="M0 0 C0.66 0.66 1.32 1.32 2 2 C2.99 2 3.98 2 5 2 C5 2.66 5 3.32 5 4 C5.66 4.33 6.32 4.66 7 5 C4.125 5.1875 4.125 5.1875 1 5 C0.34 4.01 -0.32 3.02 -1 2 C-0.67 1.34 -0.34 0.68 0 0 Z " fill="#726E6F" transform="translate(66,163)"/>
<path d="M0 0 C0.86625 0.556875 0.86625 0.556875 1.75 1.125 C-0.23 1.785 -2.21 2.445 -4.25 3.125 C-4.91 2.465 -5.57 1.805 -6.25 1.125 C-2.80384615 -1.09038462 -2.80384615 -1.09038462 0 0 Z " fill="#232223" transform="translate(42.25,142.875)"/>
<path d="M0 0 C1 3 1 3 1 7 C-0.32 7.33 -1.64 7.66 -3 8 C-2.25 2.25 -2.25 2.25 0 0 Z " fill="#5F5F5F" transform="translate(182,138)"/>
<path d="M0 0 C-0.66 2.64 -1.32 5.28 -2 8 C-3.4606285 5.35261084 -4 4.10551666 -4 1 C-2 0 -2 0 0 0 Z " fill="#2A2A2A" transform="translate(262,133)"/>
<path d="M0 0 C0.66 0 1.32 0 2 0 C2.25 2.25 2.25 2.25 2 5 C0 7.3125 0 7.3125 -2 9 C-1.34 6.03 -0.68 3.06 0 0 Z " fill="#0D0D0D" transform="translate(326,123)"/>
<path d="M0 0 C0.99 0.33 1.98 0.66 3 1 C3 1.66 3 2.32 3 3 C3.66 3 4.32 3 5 3 C5 4.65 5 6.3 5 8 C4.01 8 3.02 8 2 8 C1.34 5.36 0.68 2.72 0 0 Z " fill="#797979" transform="translate(89,113)"/>
<path d="M0 0 C0.99 0.33 1.98 0.66 3 1 C2.67 2.98 2.34 4.96 2 7 C1.34 7 0.68 7 0 7 C-0.38133299 5.0085944 -0.71325582 3.00720923 -1 1 C-0.67 0.67 -0.34 0.34 0 0 Z " fill="#616063" transform="translate(88,175)"/>
<path d="M0 0 C1.98 0.99 3.96 1.98 6 3 C5.01 3.66 4.02 4.32 3 5 C0.3125 4.125 0.3125 4.125 -2 3 C-1.34 2.67 -0.68 2.34 0 2 C0 1.34 0 0.68 0 0 Z " fill="#79777B" transform="translate(32,169)"/>
<path d="M0 0 C0.66 0.33 1.32 0.66 2 1 C1.67 1.66 1.34 2.32 1 3 C1.66 3.33 2.32 3.66 3 4 C1.68 5.65 0.36 7.3 -1 9 C-1.09765625 2.84765625 -1.09765625 2.84765625 -1 1 C-0.67 0.67 -0.34 0.34 0 0 Z " fill="#3B3B3B" transform="translate(362,143)"/>
<path d="M0 0 C0.66 0.33 1.32 0.66 2 1 C2 2.65 2 4.3 2 6 C1.38125 5.649375 0.7625 5.29875 0.125 4.9375 C-0.926875 4.4734375 -0.926875 4.4734375 -2 4 C-2.99 4.495 -2.99 4.495 -4 5 C-2.25 1.125 -2.25 1.125 0 0 Z " fill="#595959" transform="translate(363,130)"/>
<path d="M0 0 C1.32 0.33 2.64 0.66 4 1 C3.34 2.98 2.68 4.96 2 7 C0 4 0 4 0 0 Z " fill="#363435" transform="translate(558,128)"/>
<path d="M0 0 C0.99 0.33 1.98 0.66 3 1 C-0.465 3.97 -0.465 3.97 -4 7 C-2.92598892 4.08482708 -2.22189824 2.22189824 0 0 Z " fill="#343132" transform="translate(33,75)"/>
</svg>
